<svg xmlns="http://www.w3.org/2000/svg" xmlns:xlink="http://www.w3.org/1999/xlink" width="200" zoomAndPan="magnify" viewBox="0 0 150 60" height="80" preserveAspectRatio="xMidYMid meet" version="1.0"><defs><g/></defs><g fill="#676767" fill-opacity="1"><g transform="translate(33.984831, 38.262357)"><g><path d="M 7.125 0 L 2.171875 0 L 2.171875 -21.234375 L 6.5 -21.234375 L 16.609375 -8.046875 L 16.609375 -21.234375 L 21.5625 -21.234375 L 21.5625 0 L 17.28125 0 L 7.140625 -13.1875 L 7.125 -13.1875 Z M 7.125 0 "/></g></g></g><g fill="#676767" fill-opacity="1"><g transform="translate(57.711637, 38.262357)"><g><path d="M 17.28125 0 L 2.171875 0 L 2.171875 -21.234375 L 17.140625 -21.234375 L 17.140625 -16.84375 L 7.125 -16.84375 L 7.125 -12.828125 L 15.71875 -12.828125 L 15.71875 -8.703125 L 7.125 -8.703125 L 7.125 -4.40625 L 17.28125 -4.40625 Z M 17.28125 0 "/></g></g></g><g fill="#676767" fill-opacity="1"><g transform="translate(75.912594, 38.262357)"><g><path d="M 6.015625 0 L 0.1875 0 L 7.953125 -11.140625 L 0.953125 -21.234375 L 6.765625 -21.234375 L 11.03125 -14.59375 L 15.3125 -21.234375 L 21.125 -21.234375 L 14.125 -11.140625 L 21.90625 0 L 16.078125 0 L 11.03125 -7.75 Z M 6.015625 0 "/></g></g></g><g fill="#676767" fill-opacity="1"><g transform="translate(98.000377, 38.262357)"><g><path d="M 11.4375 0 L 6.53125 0 L 6.53125 -16.828125 L 0.578125 -16.828125 L 0.578125 -21.234375 L 17.375 -21.234375 L 17.375 -16.828125 L 11.4375 -16.828125 Z M 11.4375 0 "/></g></g></g></svg>