<svg xmlns="http://www.w3.org/2000/svg" xmlns:xlink="http://www.w3.org/1999/xlink" width="200" zoomAndPan="magnify" viewBox="0 0 150 60" height="80" preserveAspectRatio="xMidYMid meet" version="1.0"><defs><g/></defs><g fill="#676767" fill-opacity="1"><g transform="translate(38.992496, 40.125)"><g><path d="M 21.25 -20.375 C 21.25 -19.050781 20.914062 -18.03125 20.25 -17.3125 C 19.59375 -16.601562 18.609375 -16.078125 17.296875 -15.734375 C 17.921875 -15.253906 18.410156 -14.691406 18.765625 -14.046875 C 19.128906 -13.410156 19.3125 -12.738281 19.3125 -12.03125 C 19.3125 -10.207031 18.617188 -8.828125 17.234375 -7.890625 C 15.859375 -6.960938 14.144531 -6.5 12.09375 -6.5 L 9.625 -6.5 C 8.257812 -6.5 7.578125 -6.1875 7.578125 -5.5625 C 7.578125 -5.257812 7.726562 -5.015625 8.03125 -4.828125 C 8.332031 -4.640625 8.863281 -4.546875 9.625 -4.546875 L 15.46875 -4.546875 C 17.375 -4.546875 18.8125 -4.046875 19.78125 -3.046875 C 20.757812 -2.054688 21.25 -0.726562 21.25 0.9375 C 21.25 2.175781 20.925781 3.238281 20.28125 4.125 C 19.632812 5.007812 18.753906 5.679688 17.640625 6.140625 C 16.535156 6.597656 15.335938 6.828125 14.046875 6.828125 L 4.484375 6.828125 C 3.703125 6.828125 2.976562 6.640625 2.3125 6.265625 C 1.65625 5.898438 1.128906 5.394531 0.734375 4.75 C 0.347656 4.113281 0.15625 3.40625 0.15625 2.625 C 0.15625 1.78125 0.414062 1.015625 0.9375 0.328125 C 1.457031 -0.347656 2.109375 -0.859375 2.890625 -1.203125 C 2.367188 -1.566406 1.957031 -2.007812 1.65625 -2.53125 C 1.351562 -3.050781 1.203125 -3.613281 1.203125 -4.21875 C 1.203125 -5.070312 1.515625 -5.835938 2.140625 -6.515625 C 2.773438 -7.203125 3.554688 -7.660156 4.484375 -7.890625 C 3.640625 -8.429688 2.96875 -9.054688 2.46875 -9.765625 C 1.96875 -10.472656 1.71875 -11.21875 1.71875 -12 C 1.71875 -13.988281 2.523438 -15.410156 4.140625 -16.265625 C 5.753906 -17.117188 7.894531 -17.546875 10.5625 -17.546875 C 11.726562 -17.546875 12.671875 -17.484375 13.390625 -17.359375 C 14.453125 -18.023438 15.140625 -18.632812 15.453125 -19.1875 C 15.765625 -19.738281 15.921875 -20.132812 15.921875 -20.375 Z M 10.5 -14.171875 C 9.78125 -14.171875 9.191406 -13.984375 8.734375 -13.609375 C 8.285156 -13.242188 8.0625 -12.71875 8.0625 -12.03125 C 8.0625 -11.3125 8.269531 -10.769531 8.6875 -10.40625 C 9.113281 -10.050781 9.71875 -9.875 10.5 -9.875 C 11.28125 -9.875 11.890625 -10.050781 12.328125 -10.40625 C 12.773438 -10.769531 13 -11.3125 13 -12.03125 C 13 -12.738281 12.773438 -13.269531 12.328125 -13.625 C 11.890625 -13.988281 11.28125 -14.171875 10.5 -14.171875 Z M 8 0 C 7.5 0 7.09375 0.132812 6.78125 0.40625 C 6.46875 0.675781 6.3125 1.0625 6.3125 1.5625 C 6.3125 2.0625 6.472656 2.460938 6.796875 2.765625 C 7.117188 3.066406 7.519531 3.21875 8 3.21875 L 13.0625 3.21875 C 13.539062 3.21875 13.945312 3.070312 14.28125 2.78125 C 14.613281 2.488281 14.78125 2.09375 14.78125 1.59375 C 14.78125 1.09375 14.617188 0.703125 14.296875 0.421875 C 13.972656 0.140625 13.5625 0 13.0625 0 Z M 8 0 "/></g></g></g><g fill="#676767" fill-opacity="1"><g transform="translate(58.814855, 40.125)"><g><path d="M 12.375 -17.578125 C 12.875 -17.578125 13.316406 -17.515625 13.703125 -17.390625 C 14.097656 -17.273438 14.296875 -17.207031 14.296875 -17.1875 L 14.296875 -11.765625 L 12.21875 -11.765625 C 10.875 -11.765625 9.90625 -11.414062 9.3125 -10.71875 C 8.71875 -10.03125 8.421875 -9.003906 8.421875 -7.640625 L 8.421875 0 L 1.953125 0 L 1.953125 -17.15625 L 7.25 -17.15625 L 7.671875 -14.5625 C 8.054688 -15.5625 8.671875 -16.3125 9.515625 -16.8125 C 10.367188 -17.320312 11.320312 -17.578125 12.375 -17.578125 Z M 12.375 -17.578125 "/></g></g></g><g fill="#676767" fill-opacity="1"><g transform="translate(71.390599, 40.125)"><g><path d="M 2.171875 -19.171875 L 2.171875 -23.5625 L 8.640625 -23.5625 L 8.640625 -19.171875 Z M 2.171875 0 L 2.171875 -17.15625 L 8.640625 -17.15625 L 8.640625 0 Z M 2.171875 0 "/></g></g></g><g fill="#676767" fill-opacity="1"><g transform="translate(80.359279, 40.125)"><g><path d="M 14.4375 0 L 13.875 -2.4375 C 12.625 -0.550781 10.804688 0.390625 8.421875 0.390625 C 6.097656 0.390625 4.304688 -0.363281 3.046875 -1.875 C 1.796875 -3.394531 1.171875 -5.640625 1.171875 -8.609375 C 1.171875 -11.554688 1.796875 -13.78125 3.046875 -15.28125 C 4.304688 -16.789062 6.097656 -17.546875 8.421875 -17.546875 C 10.390625 -17.546875 11.992188 -16.882812 13.234375 -15.5625 L 13.234375 -23.5625 L 19.6875 -23.5625 L 19.6875 0 Z M 10.4375 -12.765625 C 8.570312 -12.765625 7.640625 -11.648438 7.640625 -9.421875 L 7.640625 -7.703125 C 7.640625 -5.492188 8.570312 -4.390625 10.4375 -4.390625 C 11.382812 -4.390625 12.097656 -4.722656 12.578125 -5.390625 C 13.054688 -6.066406 13.296875 -6.945312 13.296875 -8.03125 L 13.296875 -9.09375 C 13.296875 -10.175781 13.054688 -11.054688 12.578125 -11.734375 C 12.097656 -12.421875 11.382812 -12.765625 10.4375 -12.765625 Z M 10.4375 -12.765625 "/></g></g></g><g fill="#676767" fill-opacity="1"><g transform="translate(100.181637, 40.125)"><g><path d="M 1.984375 0 L 1.984375 -6.46875 L 8.875 -6.46875 L 8.875 0 Z M 1.984375 0 "/></g></g></g></svg>