<svg xmlns="http://www.w3.org/2000/svg" xmlns:xlink="http://www.w3.org/1999/xlink" width="200" zoomAndPan="magnify" viewBox="0 0 150 60" height="80" preserveAspectRatio="xMidYMid meet" version="1.0"><defs><g/></defs><g fill="#676767" fill-opacity="1"><g transform="translate(20.548502, 39.45389)"><g><path d="M 12.796875 -0.640625 C 12.328125 -0.347656 11.753906 -0.125 11.078125 0.03125 C 10.398438 0.1875 9.679688 0.265625 8.921875 0.265625 C 6.835938 0.265625 5.234375 -0.242188 4.109375 -1.265625 C 2.992188 -2.285156 2.4375 -3.804688 2.4375 -5.828125 L 2.4375 -11.1875 L 0.125 -11.1875 L 0.125 -15.359375 L 2.4375 -15.359375 L 2.4375 -19.5 L 8.03125 -19.5 L 8.03125 -15.359375 L 11.6875 -15.359375 L 11.6875 -11.1875 L 8.03125 -11.1875 L 8.03125 -5.890625 C 8.03125 -5.316406 8.179688 -4.867188 8.484375 -4.546875 C 8.785156 -4.222656 9.191406 -4.0625 9.703125 -4.0625 C 10.359375 -4.0625 10.929688 -4.226562 11.421875 -4.5625 Z M 12.796875 -0.640625 "/></g></g></g><g fill="#676767" fill-opacity="1"><g transform="translate(30.69718, 39.45389)"><g><path d="M 12.1875 -16.21875 C 14.164062 -16.21875 15.753906 -15.628906 16.953125 -14.453125 C 18.160156 -13.273438 18.765625 -11.5 18.765625 -9.125 L 18.765625 0 L 13.1875 0 L 13.1875 -8.203125 C 13.1875 -10.378906 12.3125 -11.46875 10.5625 -11.46875 C 9.601562 -11.46875 8.832031 -11.15625 8.25 -10.53125 C 7.675781 -9.90625 7.390625 -8.960938 7.390625 -7.703125 L 7.390625 0 L 1.796875 0 L 1.796875 -21.828125 L 7.390625 -21.828125 L 7.390625 -14.46875 C 7.992188 -15.039062 8.707031 -15.472656 9.53125 -15.765625 C 10.351562 -16.066406 11.238281 -16.21875 12.1875 -16.21875 Z M 12.1875 -16.21875 "/></g></g></g><g fill="#676767" fill-opacity="1"><g transform="translate(48.171048, 39.45389)"><g><path d="M 18.5625 -15.953125 L 18.5625 0 L 13.234375 0 L 13.234375 -1.703125 C 12.648438 -1.054688 11.945312 -0.566406 11.125 -0.234375 C 10.300781 0.0976562 9.425781 0.265625 8.5 0.265625 C 6.4375 0.265625 4.789062 -0.34375 3.5625 -1.5625 C 2.34375 -2.78125 1.734375 -4.601562 1.734375 -7.03125 L 1.734375 -15.953125 L 7.328125 -15.953125 L 7.328125 -7.9375 C 7.328125 -6.75 7.550781 -5.878906 8 -5.328125 C 8.445312 -4.773438 9.101562 -4.5 9.96875 -4.5 C 10.851562 -4.5 11.570312 -4.804688 12.125 -5.421875 C 12.6875 -6.046875 12.96875 -6.992188 12.96875 -8.265625 L 12.96875 -15.953125 Z M 18.5625 -15.953125 "/></g></g></g><g fill="#676767" fill-opacity="1"><g transform="translate(65.527238, 39.45389)"><g><path d="M 12.1875 -16.21875 C 14.164062 -16.21875 15.753906 -15.628906 16.953125 -14.453125 C 18.160156 -13.273438 18.765625 -11.5 18.765625 -9.125 L 18.765625 0 L 13.1875 0 L 13.1875 -8.203125 C 13.1875 -10.378906 12.3125 -11.46875 10.5625 -11.46875 C 9.601562 -11.46875 8.832031 -11.15625 8.25 -10.53125 C 7.675781 -9.90625 7.390625 -8.960938 7.390625 -7.703125 L 7.390625 0 L 1.796875 0 L 1.796875 -15.953125 L 7.125 -15.953125 L 7.125 -14.203125 C 7.75 -14.859375 8.492188 -15.359375 9.359375 -15.703125 C 10.222656 -16.046875 11.164062 -16.21875 12.1875 -16.21875 Z M 12.1875 -16.21875 "/></g></g></g><g fill="#676767" fill-opacity="1"><g transform="translate(83.001104, 39.45389)"><g><path d="M 18.734375 -21.828125 L 18.734375 0 L 13.421875 0 L 13.421875 -1.59375 C 12.378906 -0.351562 10.816406 0.265625 8.734375 0.265625 C 7.285156 0.265625 5.960938 -0.0703125 4.765625 -0.75 C 3.566406 -1.425781 2.617188 -2.390625 1.921875 -3.640625 C 1.222656 -4.898438 0.875 -6.351562 0.875 -8 C 0.875 -9.644531 1.222656 -11.085938 1.921875 -12.328125 C 2.617188 -13.578125 3.566406 -14.535156 4.765625 -15.203125 C 5.960938 -15.878906 7.285156 -16.21875 8.734375 -16.21875 C 10.640625 -16.21875 12.113281 -15.664062 13.15625 -14.5625 L 13.15625 -21.828125 Z M 9.921875 -4.171875 C 10.878906 -4.171875 11.671875 -4.507812 12.296875 -5.1875 C 12.921875 -5.863281 13.234375 -6.800781 13.234375 -8 C 13.234375 -9.175781 12.925781 -10.097656 12.3125 -10.765625 C 11.695312 -11.429688 10.898438 -11.765625 9.921875 -11.765625 C 8.929688 -11.765625 8.125 -11.429688 7.5 -10.765625 C 6.875 -10.097656 6.5625 -9.175781 6.5625 -8 C 6.5625 -6.800781 6.875 -5.863281 7.5 -5.1875 C 8.125 -4.507812 8.929688 -4.171875 9.921875 -4.171875 Z M 9.921875 -4.171875 "/></g></g></g><g fill="#676767" fill-opacity="1"><g transform="translate(100.533804, 39.45389)"><g><path d="M 18.09375 -7.9375 C 18.09375 -7.90625 18.0625 -7.445312 18 -6.5625 L 6.40625 -6.5625 C 6.644531 -5.738281 7.101562 -5.101562 7.78125 -4.65625 C 8.457031 -4.21875 9.304688 -4 10.328125 -4 C 11.085938 -4 11.75 -4.109375 12.3125 -4.328125 C 12.875 -4.546875 13.4375 -4.898438 14 -5.390625 L 16.953125 -2.328125 C 15.398438 -0.597656 13.132812 0.265625 10.15625 0.265625 C 8.289062 0.265625 6.648438 -0.0859375 5.234375 -0.796875 C 3.828125 -1.503906 2.734375 -2.484375 1.953125 -3.734375 C 1.179688 -4.992188 0.796875 -6.414062 0.796875 -8 C 0.796875 -9.570312 1.171875 -10.976562 1.921875 -12.21875 C 2.679688 -13.46875 3.726562 -14.445312 5.0625 -15.15625 C 6.394531 -15.863281 7.894531 -16.21875 9.5625 -16.21875 C 11.144531 -16.21875 12.582031 -15.882812 13.875 -15.21875 C 15.175781 -14.5625 16.203125 -13.609375 16.953125 -12.359375 C 17.710938 -11.117188 18.09375 -9.644531 18.09375 -7.9375 Z M 9.59375 -12.234375 C 8.726562 -12.234375 8.003906 -11.988281 7.421875 -11.5 C 6.847656 -11.007812 6.484375 -10.34375 6.328125 -9.5 L 12.859375 -9.5 C 12.703125 -10.34375 12.332031 -11.007812 11.75 -11.5 C 11.175781 -11.988281 10.457031 -12.234375 9.59375 -12.234375 Z M 9.59375 -12.234375 "/></g></g></g><g fill="#676767" fill-opacity="1"><g transform="translate(116.419076, 39.45389)"><g><path d="M 7.125 -14.03125 C 7.6875 -14.757812 8.421875 -15.304688 9.328125 -15.671875 C 10.242188 -16.035156 11.289062 -16.21875 12.46875 -16.21875 L 12.46875 -11.1875 C 11.957031 -11.238281 11.535156 -11.265625 11.203125 -11.265625 C 10.015625 -11.265625 9.082031 -10.941406 8.40625 -10.296875 C 7.726562 -9.648438 7.390625 -8.660156 7.390625 -7.328125 L 7.390625 0 L 1.796875 0 L 1.796875 -15.953125 L 7.125 -15.953125 Z M 7.125 -14.03125 "/></g></g></g></svg>