<svg xmlns="http://www.w3.org/2000/svg" xmlns:xlink="http://www.w3.org/1999/xlink" width="200" zoomAndPan="magnify" viewBox="0 0 150 60" height="80" preserveAspectRatio="xMidYMid meet" version="1.0"><defs><g/></defs><g fill="#676767" fill-opacity="1"><g transform="translate(13.289369, 37.76962)"><g><path d="M 18.296875 -21.328125 L 18.296875 0 L 13.109375 0 L 13.109375 -1.546875 C 12.085938 -0.335938 10.5625 0.265625 8.53125 0.265625 C 7.113281 0.265625 5.820312 -0.0625 4.65625 -0.71875 C 3.488281 -1.382812 2.5625 -2.332031 1.875 -3.5625 C 1.195312 -4.789062 0.859375 -6.207031 0.859375 -7.8125 C 0.859375 -9.425781 1.195312 -10.835938 1.875 -12.046875 C 2.5625 -13.265625 3.488281 -14.195312 4.65625 -14.84375 C 5.820312 -15.5 7.113281 -15.828125 8.53125 -15.828125 C 10.394531 -15.828125 11.832031 -15.289062 12.84375 -14.21875 L 12.84375 -21.328125 Z M 9.6875 -4.078125 C 10.625 -4.078125 11.398438 -4.40625 12.015625 -5.0625 C 12.628906 -5.726562 12.9375 -6.644531 12.9375 -7.8125 C 12.9375 -8.96875 12.632812 -9.867188 12.03125 -10.515625 C 11.425781 -11.171875 10.644531 -11.5 9.6875 -11.5 C 8.726562 -11.5 7.941406 -11.171875 7.328125 -10.515625 C 6.710938 -9.867188 6.40625 -8.96875 6.40625 -7.8125 C 6.40625 -6.644531 6.710938 -5.726562 7.328125 -5.0625 C 7.941406 -4.40625 8.726562 -4.078125 9.6875 -4.078125 Z M 9.6875 -4.078125 "/></g></g></g><g fill="#676767" fill-opacity="1"><g transform="translate(31.154053, 37.76962)"><g><path d="M 1.75 -15.578125 L 7.21875 -15.578125 L 7.21875 0 L 1.75 0 Z M 4.484375 -17.296875 C 3.492188 -17.296875 2.691406 -17.570312 2.078125 -18.125 C 1.460938 -18.6875 1.15625 -19.378906 1.15625 -20.203125 C 1.15625 -21.023438 1.460938 -21.710938 2.078125 -22.265625 C 2.691406 -22.828125 3.492188 -23.109375 4.484375 -23.109375 C 5.484375 -23.109375 6.289062 -22.84375 6.90625 -22.3125 C 7.519531 -21.78125 7.828125 -21.101562 7.828125 -20.28125 C 7.828125 -19.425781 7.519531 -18.710938 6.90625 -18.140625 C 6.289062 -17.578125 5.484375 -17.296875 4.484375 -17.296875 Z M 4.484375 -17.296875 "/></g></g></g><g fill="#676767" fill-opacity="1"><g transform="translate(37.960495, 37.76962)"><g><path d="M 7.40625 0.265625 C 6.101562 0.265625 4.820312 0.117188 3.5625 -0.171875 C 2.300781 -0.472656 1.285156 -0.863281 0.515625 -1.34375 L 2.15625 -5.09375 C 2.863281 -4.644531 3.707031 -4.289062 4.6875 -4.03125 C 5.664062 -3.78125 6.628906 -3.65625 7.578125 -3.65625 C 8.460938 -3.65625 9.09375 -3.742188 9.46875 -3.921875 C 9.84375 -4.097656 10.03125 -4.363281 10.03125 -4.71875 C 10.03125 -5.0625 9.800781 -5.300781 9.34375 -5.4375 C 8.894531 -5.582031 8.1875 -5.722656 7.21875 -5.859375 C 5.96875 -6.015625 4.90625 -6.21875 4.03125 -6.46875 C 3.164062 -6.71875 2.414062 -7.175781 1.78125 -7.84375 C 1.144531 -8.507812 0.828125 -9.445312 0.828125 -10.65625 C 0.828125 -11.65625 1.125 -12.539062 1.71875 -13.3125 C 2.3125 -14.09375 3.175781 -14.707031 4.3125 -15.15625 C 5.457031 -15.601562 6.828125 -15.828125 8.421875 -15.828125 C 9.546875 -15.828125 10.664062 -15.710938 11.78125 -15.484375 C 12.894531 -15.253906 13.820312 -14.929688 14.5625 -14.515625 L 12.9375 -10.796875 C 11.550781 -11.566406 10.054688 -11.953125 8.453125 -11.953125 C 7.585938 -11.953125 6.953125 -11.847656 6.546875 -11.640625 C 6.148438 -11.441406 5.953125 -11.179688 5.953125 -10.859375 C 5.953125 -10.492188 6.171875 -10.238281 6.609375 -10.09375 C 7.046875 -9.957031 7.773438 -9.8125 8.796875 -9.65625 C 10.078125 -9.46875 11.140625 -9.25 11.984375 -9 C 12.828125 -8.75 13.554688 -8.289062 14.171875 -7.625 C 14.796875 -6.96875 15.109375 -6.046875 15.109375 -4.859375 C 15.109375 -3.878906 14.8125 -3 14.21875 -2.21875 C 13.625 -1.445312 12.75 -0.835938 11.59375 -0.390625 C 10.4375 0.046875 9.039062 0.265625 7.40625 0.265625 Z M 7.40625 0.265625 "/></g></g></g><g fill="#676767" fill-opacity="1"><g transform="translate(51.488052, 37.76962)"><g><path d="M 9.71875 0.265625 C 7.988281 0.265625 6.441406 -0.078125 5.078125 -0.765625 C 3.722656 -1.460938 2.664062 -2.421875 1.90625 -3.640625 C 1.15625 -4.867188 0.78125 -6.257812 0.78125 -7.8125 C 0.78125 -9.363281 1.15625 -10.75 1.90625 -11.96875 C 2.664062 -13.1875 3.722656 -14.132812 5.078125 -14.8125 C 6.441406 -15.488281 7.988281 -15.828125 9.71875 -15.828125 C 11.476562 -15.828125 13 -15.445312 14.28125 -14.6875 C 15.5625 -13.9375 16.472656 -12.890625 17.015625 -11.546875 L 12.78125 -9.390625 C 12.070312 -10.796875 11.039062 -11.5 9.6875 -11.5 C 8.707031 -11.5 7.894531 -11.171875 7.25 -10.515625 C 6.613281 -9.867188 6.296875 -8.96875 6.296875 -7.8125 C 6.296875 -6.644531 6.613281 -5.726562 7.25 -5.0625 C 7.894531 -4.40625 8.707031 -4.078125 9.6875 -4.078125 C 11.039062 -4.078125 12.070312 -4.773438 12.78125 -6.171875 L 17.015625 -4.015625 C 16.472656 -2.679688 15.5625 -1.632812 14.28125 -0.875 C 13 -0.113281 11.476562 0.265625 9.71875 0.265625 Z M 9.71875 0.265625 "/></g></g></g><g fill="#676767" fill-opacity="1"><g transform="translate(66.624076, 37.76962)"><g><path d="M 9.5625 0.265625 C 7.894531 0.265625 6.390625 -0.078125 5.046875 -0.765625 C 3.710938 -1.460938 2.664062 -2.421875 1.90625 -3.640625 C 1.15625 -4.867188 0.78125 -6.257812 0.78125 -7.8125 C 0.78125 -9.34375 1.15625 -10.722656 1.90625 -11.953125 C 2.664062 -13.179688 3.710938 -14.132812 5.046875 -14.8125 C 6.378906 -15.488281 7.882812 -15.828125 9.5625 -15.828125 C 11.25 -15.828125 12.765625 -15.488281 14.109375 -14.8125 C 15.453125 -14.132812 16.492188 -13.1875 17.234375 -11.96875 C 17.984375 -10.75 18.359375 -9.363281 18.359375 -7.8125 C 18.359375 -6.257812 17.984375 -4.867188 17.234375 -3.640625 C 16.492188 -2.421875 15.453125 -1.460938 14.109375 -0.765625 C 12.765625 -0.078125 11.25 0.265625 9.5625 0.265625 Z M 9.5625 -4.078125 C 10.519531 -4.078125 11.304688 -4.40625 11.921875 -5.0625 C 12.535156 -5.726562 12.84375 -6.644531 12.84375 -7.8125 C 12.84375 -8.96875 12.535156 -9.867188 11.921875 -10.515625 C 11.304688 -11.171875 10.519531 -11.5 9.5625 -11.5 C 8.601562 -11.5 7.816406 -11.171875 7.203125 -10.515625 C 6.597656 -9.867188 6.296875 -8.96875 6.296875 -7.8125 C 6.296875 -6.644531 6.597656 -5.726562 7.203125 -5.0625 C 7.816406 -4.40625 8.601562 -4.078125 9.5625 -4.078125 Z M 9.5625 -4.078125 "/></g></g></g><g fill="#676767" fill-opacity="1"><g transform="translate(83.569639, 37.76962)"><g><path d="M 18.125 -15.578125 L 18.125 0 L 12.9375 0 L 12.9375 -1.671875 C 12.351562 -1.035156 11.660156 -0.550781 10.859375 -0.21875 C 10.054688 0.101562 9.203125 0.265625 8.296875 0.265625 C 6.285156 0.265625 4.679688 -0.328125 3.484375 -1.515625 C 2.296875 -2.703125 1.703125 -4.488281 1.703125 -6.875 L 1.703125 -15.578125 L 7.15625 -15.578125 L 7.15625 -7.765625 C 7.15625 -6.585938 7.375 -5.726562 7.8125 -5.1875 C 8.257812 -4.65625 8.898438 -4.390625 9.734375 -4.390625 C 10.597656 -4.390625 11.300781 -4.691406 11.84375 -5.296875 C 12.394531 -5.898438 12.671875 -6.828125 12.671875 -8.078125 L 12.671875 -15.578125 Z M 18.125 -15.578125 "/></g></g></g><g fill="#676767" fill-opacity="1"><g transform="translate(101.261987, 37.76962)"><g><path d="M 11.890625 -15.828125 C 13.828125 -15.828125 15.382812 -15.253906 16.5625 -14.109375 C 17.738281 -12.960938 18.328125 -11.226562 18.328125 -8.90625 L 18.328125 0 L 12.875 0 L 12.875 -8.015625 C 12.875 -10.140625 12.019531 -11.203125 10.3125 -11.203125 C 9.375 -11.203125 8.625 -10.894531 8.0625 -10.28125 C 7.5 -9.675781 7.21875 -8.757812 7.21875 -7.53125 L 7.21875 0 L 1.75 0 L 1.75 -15.578125 L 6.953125 -15.578125 L 6.953125 -13.875 C 7.566406 -14.507812 8.296875 -14.992188 9.140625 -15.328125 C 9.984375 -15.660156 10.898438 -15.828125 11.890625 -15.828125 Z M 11.890625 -15.828125 "/></g></g></g><g fill="#676767" fill-opacity="1"><g transform="translate(119.069222, 37.76962)"><g><path d="M 12.5 -0.625 C 12.039062 -0.34375 11.476562 -0.125 10.8125 0.03125 C 10.15625 0.1875 9.453125 0.265625 8.703125 0.265625 C 6.671875 0.265625 5.109375 -0.234375 4.015625 -1.234375 C 2.929688 -2.234375 2.390625 -3.71875 2.390625 -5.6875 L 2.390625 -10.921875 L 0.109375 -10.921875 L 0.109375 -15 L 2.390625 -15 L 2.390625 -19.046875 L 7.84375 -19.046875 L 7.84375 -15 L 11.40625 -15 L 11.40625 -10.921875 L 7.84375 -10.921875 L 7.84375 -5.75 C 7.84375 -5.1875 7.988281 -4.75 8.28125 -4.4375 C 8.582031 -4.125 8.984375 -3.96875 9.484375 -3.96875 C 10.117188 -3.96875 10.675781 -4.128906 11.15625 -4.453125 Z M 12.5 -0.625 "/></g></g></g><g fill="#676767" fill-opacity="1"><g transform="translate(132.671932, 24.076939)"><g><path d="M 1.484375 -3.671875 L 0.03125 -3.671875 L 0.03125 -4.734375 L 4.265625 -4.734375 L 4.265625 -3.671875 L 2.828125 -3.671875 L 2.828125 0 L 1.484375 0 Z M 1.484375 -3.671875 "/></g></g></g><g fill="#676767" fill-opacity="1"><g transform="translate(136.967013, 24.076939)"><g><path d="M 4.75 0 L 4.734375 -2.515625 L 3.515625 -0.46875 L 2.921875 -0.46875 L 1.71875 -2.4375 L 1.71875 0 L 0.46875 0 L 0.46875 -4.734375 L 1.578125 -4.734375 L 3.234375 -2 L 4.859375 -4.734375 L 5.96875 -4.734375 L 5.984375 0 Z M 4.75 0 "/></g></g></g></svg>