<svg xmlns="http://www.w3.org/2000/svg" xmlns:xlink="http://www.w3.org/1999/xlink" width="200" zoomAndPan="magnify" viewBox="0 0 150 60" height="80" preserveAspectRatio="xMidYMid meet" version="1.0"><defs><g/></defs><g fill="#676767" fill-opacity="1"><g transform="translate(26.156249, 37.3125)"><g><path d="M 5.65625 -11.046875 L 5.65625 -11.6875 C 5.65625 -12.070312 5.550781 -12.398438 5.34375 -12.671875 C 5.144531 -12.953125 4.84375 -13.09375 4.4375 -13.09375 C 4.25 -13.09375 4.0625 -13.046875 3.875 -12.953125 C 3.6875 -12.859375 3.53125 -12.707031 3.40625 -12.5 C 3.289062 -12.300781 3.234375 -12.03125 3.234375 -11.6875 C 3.234375 -11.332031 3.300781 -11.03125 3.4375 -10.78125 C 3.570312 -10.53125 3.765625 -10.296875 4.015625 -10.078125 C 4.265625 -9.859375 4.554688 -9.617188 4.890625 -9.359375 C 5.410156 -8.953125 5.898438 -8.554688 6.359375 -8.171875 C 6.816406 -7.796875 7.21875 -7.390625 7.5625 -6.953125 C 7.90625 -6.523438 8.175781 -6.046875 8.375 -5.515625 C 8.570312 -4.984375 8.671875 -4.363281 8.671875 -3.65625 C 8.671875 -3.132812 8.570312 -2.640625 8.375 -2.171875 C 8.175781 -1.703125 7.894531 -1.285156 7.53125 -0.921875 C 7.164062 -0.554688 6.726562 -0.269531 6.21875 -0.0625 C 5.707031 0.144531 5.140625 0.25 4.515625 0.25 C 3.847656 0.25 3.257812 0.140625 2.75 -0.078125 C 2.238281 -0.304688 1.8125 -0.609375 1.46875 -0.984375 C 1.125 -1.359375 0.867188 -1.785156 0.703125 -2.265625 C 0.535156 -2.753906 0.453125 -3.265625 0.453125 -3.796875 L 0.453125 -4.390625 C 0.453125 -4.578125 0.472656 -4.710938 0.515625 -4.796875 C 0.566406 -4.878906 0.671875 -4.921875 0.828125 -4.921875 L 2.875 -4.921875 C 3.03125 -4.921875 3.132812 -4.882812 3.1875 -4.8125 C 3.238281 -4.75 3.265625 -4.632812 3.265625 -4.46875 L 3.265625 -3.953125 C 3.265625 -3.578125 3.332031 -3.28125 3.46875 -3.0625 C 3.601562 -2.851562 3.769531 -2.703125 3.96875 -2.609375 C 4.164062 -2.515625 4.359375 -2.46875 4.546875 -2.46875 C 4.898438 -2.46875 5.203125 -2.585938 5.453125 -2.828125 C 5.703125 -3.066406 5.828125 -3.394531 5.828125 -3.8125 C 5.828125 -4.175781 5.757812 -4.488281 5.625 -4.75 C 5.488281 -5.019531 5.273438 -5.289062 4.984375 -5.5625 C 4.691406 -5.832031 4.316406 -6.15625 3.859375 -6.53125 C 3.273438 -7.007812 2.765625 -7.429688 2.328125 -7.796875 C 1.898438 -8.171875 1.546875 -8.539062 1.265625 -8.90625 C 0.992188 -9.269531 0.789062 -9.675781 0.65625 -10.125 C 0.519531 -10.570312 0.453125 -11.117188 0.453125 -11.765625 C 0.453125 -12.347656 0.535156 -12.863281 0.703125 -13.3125 C 0.878906 -13.757812 1.109375 -14.140625 1.390625 -14.453125 C 1.679688 -14.765625 2.003906 -15.019531 2.359375 -15.21875 C 2.710938 -15.414062 3.066406 -15.5625 3.421875 -15.65625 C 3.785156 -15.75 4.125 -15.796875 4.4375 -15.796875 C 5.21875 -15.796875 5.90625 -15.625 6.5 -15.28125 C 7.101562 -14.945312 7.578125 -14.472656 7.921875 -13.859375 C 8.265625 -13.242188 8.4375 -12.523438 8.4375 -11.703125 L 8.4375 -11.046875 C 8.4375 -10.890625 8.40625 -10.78125 8.34375 -10.71875 C 8.289062 -10.65625 8.175781 -10.625 8 -10.625 L 5.984375 -10.625 C 5.835938 -10.625 5.742188 -10.65625 5.703125 -10.71875 C 5.671875 -10.78125 5.65625 -10.890625 5.65625 -11.046875 Z M 5.65625 -11.046875 "/></g></g></g><g fill="#676767" fill-opacity="1"><g transform="translate(35.149016, 37.3125)"><g><path d="M 7.5 -12.828125 L 5.40625 -12.828125 L 5.40625 -0.390625 C 5.40625 -0.265625 5.375 -0.164062 5.3125 -0.09375 C 5.25 -0.03125 5.171875 0 5.078125 0 L 2.734375 0 C 2.640625 0 2.5625 -0.03125 2.5 -0.09375 C 2.4375 -0.164062 2.40625 -0.265625 2.40625 -0.390625 L 2.40625 -12.828125 L 0.3125 -12.828125 C 0.21875 -12.828125 0.140625 -12.859375 0.078125 -12.921875 C 0.015625 -12.992188 -0.015625 -13.097656 -0.015625 -13.234375 L -0.015625 -15.140625 C -0.015625 -15.273438 0.015625 -15.378906 0.078125 -15.453125 C 0.140625 -15.523438 0.21875 -15.5625 0.3125 -15.5625 L 7.5 -15.5625 C 7.59375 -15.5625 7.671875 -15.523438 7.734375 -15.453125 C 7.796875 -15.390625 7.828125 -15.289062 7.828125 -15.15625 L 7.828125 -13.234375 C 7.828125 -13.097656 7.796875 -12.992188 7.734375 -12.921875 C 7.671875 -12.859375 7.59375 -12.828125 7.5 -12.828125 Z M 7.5 -12.828125 "/></g></g></g><g fill="#676767" fill-opacity="1"><g transform="translate(42.950241, 37.3125)"><g><path d="M 6.109375 -3.828125 L 6.109375 -15.109375 C 6.109375 -15.234375 6.132812 -15.335938 6.1875 -15.421875 C 6.25 -15.515625 6.34375 -15.5625 6.46875 -15.5625 L 8.75 -15.5625 C 8.875 -15.5625 8.960938 -15.515625 9.015625 -15.421875 C 9.078125 -15.328125 9.109375 -15.222656 9.109375 -15.109375 L 9.109375 -3.65625 C 9.109375 -3.113281 8.992188 -2.601562 8.765625 -2.125 C 8.546875 -1.65625 8.238281 -1.242188 7.84375 -0.890625 C 7.457031 -0.535156 7.007812 -0.253906 6.5 -0.046875 C 6 0.148438 5.46875 0.25 4.90625 0.25 C 4.34375 0.25 3.804688 0.148438 3.296875 -0.046875 C 2.796875 -0.253906 2.351562 -0.535156 1.96875 -0.890625 C 1.582031 -1.242188 1.273438 -1.65625 1.046875 -2.125 C 0.816406 -2.601562 0.703125 -3.113281 0.703125 -3.65625 L 0.703125 -15.125 C 0.703125 -15.25 0.734375 -15.351562 0.796875 -15.4375 C 0.859375 -15.519531 0.925781 -15.5625 1 -15.5625 L 3.375 -15.5625 C 3.507812 -15.5625 3.597656 -15.519531 3.640625 -15.4375 C 3.691406 -15.351562 3.71875 -15.25 3.71875 -15.125 L 3.71875 -3.828125 C 3.71875 -3.472656 3.820312 -3.15625 4.03125 -2.875 C 4.238281 -2.601562 4.535156 -2.46875 4.921875 -2.46875 C 5.171875 -2.46875 5.382812 -2.53125 5.5625 -2.65625 C 5.738281 -2.78125 5.875 -2.945312 5.96875 -3.15625 C 6.0625 -3.363281 6.109375 -3.585938 6.109375 -3.828125 Z M 6.109375 -3.828125 "/></g></g></g><g fill="#676767" fill-opacity="1"><g transform="translate(52.763601, 37.3125)"><g><path d="M 3.796875 -12.828125 L 3.796875 -2.703125 L 4.96875 -2.703125 C 5.34375 -2.722656 5.640625 -2.863281 5.859375 -3.125 C 6.085938 -3.382812 6.203125 -3.703125 6.203125 -4.078125 L 6.203125 -11.453125 C 6.203125 -11.921875 6.082031 -12.265625 5.84375 -12.484375 C 5.601562 -12.710938 5.296875 -12.828125 4.921875 -12.828125 Z M 0.8125 -0.421875 L 0.8125 -15.125 C 0.8125 -15.414062 0.9375 -15.5625 1.1875 -15.5625 L 5.09375 -15.5625 C 5.875 -15.550781 6.570312 -15.390625 7.1875 -15.078125 C 7.8125 -14.773438 8.300781 -14.328125 8.65625 -13.734375 C 9.019531 -13.148438 9.203125 -12.429688 9.203125 -11.578125 L 9.203125 -4 C 9.203125 -3.132812 9.019531 -2.40625 8.65625 -1.8125 C 8.300781 -1.226562 7.8125 -0.78125 7.1875 -0.46875 C 6.570312 -0.164062 5.878906 -0.0078125 5.109375 0 L 1.1875 0 C 0.9375 0 0.8125 -0.140625 0.8125 -0.421875 Z M 0.8125 -0.421875 "/></g></g></g><g fill="#676767" fill-opacity="1"><g transform="translate(62.520753, 37.3125)"><g><path d="M 3.796875 -15.125 L 3.796875 -0.421875 C 3.796875 -0.140625 3.675781 0 3.4375 0 L 1.1875 0 C 0.9375 0 0.8125 -0.140625 0.8125 -0.421875 L 0.8125 -15.125 C 0.8125 -15.414062 0.9375 -15.5625 1.1875 -15.5625 L 3.4375 -15.5625 C 3.675781 -15.5625 3.796875 -15.414062 3.796875 -15.125 Z M 3.796875 -15.125 "/></g></g></g><g fill="#676767" fill-opacity="1"><g transform="translate(67.14079, 37.3125)"><g><path d="M 8.96875 -11.890625 L 8.96875 -3.65625 C 8.96875 -3.050781 8.851562 -2.503906 8.625 -2.015625 C 8.394531 -1.535156 8.085938 -1.125 7.703125 -0.78125 C 7.316406 -0.445312 6.867188 -0.191406 6.359375 -0.015625 C 5.847656 0.160156 5.3125 0.25 4.75 0.25 C 4.1875 0.25 3.648438 0.160156 3.140625 -0.015625 C 2.640625 -0.203125 2.191406 -0.460938 1.796875 -0.796875 C 1.410156 -1.140625 1.109375 -1.550781 0.890625 -2.03125 C 0.671875 -2.519531 0.5625 -3.0625 0.5625 -3.65625 L 0.5625 -11.890625 C 0.5625 -12.503906 0.671875 -13.050781 0.890625 -13.53125 C 1.109375 -14.019531 1.410156 -14.429688 1.796875 -14.765625 C 2.191406 -15.097656 2.640625 -15.351562 3.140625 -15.53125 C 3.648438 -15.707031 4.1875 -15.796875 4.75 -15.796875 C 5.3125 -15.796875 5.847656 -15.707031 6.359375 -15.53125 C 6.867188 -15.351562 7.316406 -15.097656 7.703125 -14.765625 C 8.085938 -14.429688 8.394531 -14.019531 8.625 -13.53125 C 8.851562 -13.050781 8.96875 -12.503906 8.96875 -11.890625 Z M 4.765625 -13.09375 C 4.378906 -13.09375 4.078125 -12.953125 3.859375 -12.671875 C 3.648438 -12.398438 3.546875 -12.085938 3.546875 -11.734375 L 3.546875 -3.8125 C 3.546875 -3.457031 3.648438 -3.144531 3.859375 -2.875 C 4.066406 -2.601562 4.363281 -2.46875 4.75 -2.46875 C 5.132812 -2.46875 5.429688 -2.59375 5.640625 -2.84375 C 5.859375 -3.09375 5.96875 -3.394531 5.96875 -3.75 L 5.96875 -11.734375 C 5.96875 -12.085938 5.859375 -12.398438 5.640625 -12.671875 C 5.429688 -12.953125 5.140625 -13.09375 4.765625 -13.09375 Z M 4.765625 -13.09375 "/></g></g></g><g fill="#676767" fill-opacity="1"><g transform="translate(76.928164, 37.3125)"><g><path d="M 7.5 -12.828125 L 5.40625 -12.828125 L 5.40625 -0.390625 C 5.40625 -0.265625 5.375 -0.164062 5.3125 -0.09375 C 5.25 -0.03125 5.171875 0 5.078125 0 L 2.734375 0 C 2.640625 0 2.5625 -0.03125 2.5 -0.09375 C 2.4375 -0.164062 2.40625 -0.265625 2.40625 -0.390625 L 2.40625 -12.828125 L 0.3125 -12.828125 C 0.21875 -12.828125 0.140625 -12.859375 0.078125 -12.921875 C 0.015625 -12.992188 -0.015625 -13.097656 -0.015625 -13.234375 L -0.015625 -15.140625 C -0.015625 -15.273438 0.015625 -15.378906 0.078125 -15.453125 C 0.140625 -15.523438 0.21875 -15.5625 0.3125 -15.5625 L 7.5 -15.5625 C 7.59375 -15.5625 7.671875 -15.523438 7.734375 -15.453125 C 7.796875 -15.390625 7.828125 -15.289062 7.828125 -15.15625 L 7.828125 -13.234375 C 7.828125 -13.097656 7.796875 -12.992188 7.734375 -12.921875 C 7.671875 -12.859375 7.59375 -12.828125 7.5 -12.828125 Z M 7.5 -12.828125 "/></g></g></g><g fill="#676767" fill-opacity="1"><g transform="translate(84.729389, 37.3125)"><g><path d="M 6.65625 -15.5625 L 8.890625 -15.5625 C 8.992188 -15.5625 9.082031 -15.53125 9.15625 -15.46875 C 9.226562 -15.414062 9.265625 -15.304688 9.265625 -15.140625 L 9.265625 -0.421875 C 9.265625 -0.140625 9.128906 0 8.859375 0 L 6.65625 0 C 6.40625 0 6.28125 -0.140625 6.28125 -0.421875 L 6.28125 -6.609375 L 3.796875 -6.609375 L 3.796875 -0.421875 C 3.796875 -0.140625 3.675781 0 3.4375 0 L 1.1875 0 C 0.9375 0 0.8125 -0.140625 0.8125 -0.421875 L 0.8125 -15.125 C 0.8125 -15.414062 0.9375 -15.5625 1.1875 -15.5625 L 3.4375 -15.5625 C 3.675781 -15.5625 3.796875 -15.414062 3.796875 -15.125 L 3.796875 -9.328125 L 6.28125 -9.328125 L 6.28125 -15.125 C 6.28125 -15.25 6.3125 -15.351562 6.375 -15.4375 C 6.4375 -15.519531 6.53125 -15.5625 6.65625 -15.5625 Z M 6.65625 -15.5625 "/></g></g></g><g fill="#676767" fill-opacity="1"><g transform="translate(94.812532, 37.3125)"><g><path d="M 6.15625 -6.25 L 6.15625 -0.4375 C 6.15625 -0.144531 6.050781 0 5.84375 0 L 3.515625 0 C 3.285156 0 3.171875 -0.144531 3.171875 -0.4375 L 3.171875 -6.265625 C 2.648438 -6.429688 2.1875 -6.6875 1.78125 -7.03125 C 1.375 -7.375 1.050781 -7.789062 0.8125 -8.28125 C 0.582031 -8.769531 0.46875 -9.320312 0.46875 -9.9375 L 0.484375 -15.3125 C 0.484375 -15.382812 0.5 -15.441406 0.53125 -15.484375 C 0.570312 -15.535156 0.632812 -15.5625 0.71875 -15.5625 L 3.1875 -15.5625 C 3.28125 -15.5625 3.347656 -15.535156 3.390625 -15.484375 C 3.441406 -15.441406 3.46875 -15.390625 3.46875 -15.328125 L 3.46875 -10.09375 C 3.46875 -9.738281 3.566406 -9.421875 3.765625 -9.140625 C 3.972656 -8.867188 4.273438 -8.734375 4.671875 -8.734375 C 5.054688 -8.734375 5.351562 -8.859375 5.5625 -9.109375 C 5.769531 -9.359375 5.875 -9.660156 5.875 -10.015625 L 5.875 -15.3125 C 5.875 -15.382812 5.894531 -15.441406 5.9375 -15.484375 C 5.976562 -15.535156 6.039062 -15.5625 6.125 -15.5625 L 8.640625 -15.5625 C 8.796875 -15.5625 8.875 -15.476562 8.875 -15.3125 L 8.875 -9.9375 C 8.875 -9.3125 8.753906 -8.75 8.515625 -8.25 C 8.285156 -7.757812 7.960938 -7.347656 7.546875 -7.015625 C 7.140625 -6.679688 6.675781 -6.425781 6.15625 -6.25 Z M 6.15625 -6.25 "/></g></g></g><g fill="#676767" fill-opacity="1"><g transform="translate(104.153771, 37.3125)"><g><path d="M 8.75 0 L 6.46875 0 C 6.351562 0 6.265625 -0.0390625 6.203125 -0.125 C 6.140625 -0.21875 6.109375 -0.328125 6.109375 -0.453125 L 6.109375 -11.734375 C 6.109375 -12.085938 6.003906 -12.398438 5.796875 -12.671875 C 5.585938 -12.953125 5.296875 -13.09375 4.921875 -13.09375 C 4.535156 -13.09375 4.238281 -12.953125 4.03125 -12.671875 C 3.820312 -12.398438 3.71875 -12.085938 3.71875 -11.734375 L 3.71875 -0.4375 C 3.71875 -0.320312 3.691406 -0.21875 3.640625 -0.125 C 3.585938 -0.0390625 3.5 0 3.375 0 L 1 0 C 0.914062 0 0.84375 -0.0390625 0.78125 -0.125 C 0.726562 -0.21875 0.703125 -0.320312 0.703125 -0.4375 L 0.703125 -11.90625 C 0.703125 -12.445312 0.816406 -12.953125 1.046875 -13.421875 C 1.273438 -13.898438 1.582031 -14.316406 1.96875 -14.671875 C 2.351562 -15.023438 2.796875 -15.300781 3.296875 -15.5 C 3.804688 -15.707031 4.34375 -15.8125 4.90625 -15.8125 C 5.46875 -15.8125 6 -15.707031 6.5 -15.5 C 7.007812 -15.300781 7.457031 -15.023438 7.84375 -14.671875 C 8.238281 -14.316406 8.546875 -13.898438 8.765625 -13.421875 C 8.992188 -12.953125 9.109375 -12.445312 9.109375 -11.90625 L 9.109375 -0.453125 C 9.109375 -0.335938 9.078125 -0.234375 9.015625 -0.140625 C 8.960938 -0.046875 8.875 0 8.75 0 Z M 8.75 0 "/></g></g></g><g fill="#676767" fill-opacity="1"><g transform="translate(113.967131, 37.3125)"><g><path d="M 7.3125 -7.8125 C 7.957031 -7.320312 8.457031 -6.695312 8.8125 -5.9375 C 9.175781 -5.175781 9.359375 -4.300781 9.359375 -3.3125 L 9.359375 -0.46875 C 9.359375 -0.375 9.328125 -0.269531 9.265625 -0.15625 C 9.203125 -0.0507812 9.097656 0 8.953125 0 L 6.859375 0 C 6.734375 0 6.617188 -0.0390625 6.515625 -0.125 C 6.410156 -0.21875 6.359375 -0.34375 6.359375 -0.5 L 6.359375 -2.953125 C 6.359375 -3.609375 6.28125 -4.179688 6.125 -4.671875 C 5.976562 -5.171875 5.71875 -5.5625 5.34375 -5.84375 C 4.976562 -6.132812 4.460938 -6.296875 3.796875 -6.328125 L 3.796875 -0.421875 C 3.796875 -0.140625 3.675781 0 3.4375 0 L 1.1875 0 C 0.9375 0 0.8125 -0.140625 0.8125 -0.421875 L 0.8125 -15.125 C 0.8125 -15.414062 0.9375 -15.5625 1.1875 -15.5625 L 3.4375 -15.5625 C 3.675781 -15.5625 3.796875 -15.414062 3.796875 -15.125 L 3.796875 -9.15625 C 4.421875 -9.207031 4.90625 -9.378906 5.25 -9.671875 C 5.59375 -9.960938 5.835938 -10.351562 5.984375 -10.84375 C 6.128906 -11.332031 6.203125 -11.894531 6.203125 -12.53125 L 6.203125 -15.046875 C 6.203125 -15.222656 6.253906 -15.351562 6.359375 -15.4375 C 6.460938 -15.519531 6.582031 -15.5625 6.71875 -15.5625 L 8.796875 -15.5625 C 8.941406 -15.5625 9.046875 -15.503906 9.109375 -15.390625 C 9.171875 -15.285156 9.203125 -15.179688 9.203125 -15.078125 L 9.203125 -12.1875 C 9.203125 -11.238281 9.035156 -10.394531 8.703125 -9.65625 C 8.367188 -8.925781 7.90625 -8.3125 7.3125 -7.8125 Z M 7.3125 -7.8125 "/></g></g></g></svg>