<svg xmlns="http://www.w3.org/2000/svg" xmlns:xlink="http://www.w3.org/1999/xlink" width="200" zoomAndPan="magnify" viewBox="0 0 150 60" height="80" preserveAspectRatio="xMidYMid meet" version="1.0"><defs><g/></defs><g fill="#676767" fill-opacity="1"><g transform="translate(33.161359, 37.663735)"><g><path d="M 10.21875 0 L 6.65625 0 L 0.15625 -16.296875 L 4.234375 -16.296875 L 8.015625 -6.453125 L 8.453125 -4.734375 L 8.859375 -6.4375 L 12.640625 -16.296875 L 16.75 -16.296875 Z M 10.21875 0 "/></g></g></g><g fill="#676767" fill-opacity="1"><g transform="translate(48.03589, 37.663735)"><g><path d="M 17.75 -8.4375 C 17.75 -8.226562 17.742188 -8.035156 17.734375 -7.859375 C 17.722656 -7.679688 17.703125 -7.4375 17.671875 -7.125 L 4.9375 -7.125 C 5.082031 -6.238281 5.367188 -5.484375 5.796875 -4.859375 C 6.222656 -4.242188 6.75 -3.769531 7.375 -3.4375 C 8.007812 -3.101562 8.703125 -2.9375 9.453125 -2.9375 C 10.429688 -2.9375 11.21875 -3.128906 11.8125 -3.515625 C 12.414062 -3.898438 12.859375 -4.4375 13.140625 -5.125 L 17.3125 -5.125 C 17.113281 -4.394531 16.785156 -3.691406 16.328125 -3.015625 C 15.867188 -2.335938 15.304688 -1.734375 14.640625 -1.203125 C 13.972656 -0.679688 13.207031 -0.269531 12.34375 0.03125 C 11.488281 0.332031 10.554688 0.484375 9.546875 0.484375 C 8.316406 0.484375 7.1875 0.257812 6.15625 -0.1875 C 5.125 -0.632812 4.226562 -1.253906 3.46875 -2.046875 C 2.71875 -2.835938 2.132812 -3.753906 1.71875 -4.796875 C 1.300781 -5.847656 1.09375 -6.960938 1.09375 -8.140625 C 1.09375 -9.335938 1.300781 -10.457031 1.71875 -11.5 C 2.132812 -12.539062 2.71875 -13.457031 3.46875 -14.25 C 4.226562 -15.039062 5.125 -15.660156 6.15625 -16.109375 C 7.1875 -16.554688 8.316406 -16.78125 9.546875 -16.78125 C 10.765625 -16.78125 11.878906 -16.554688 12.890625 -16.109375 C 13.898438 -15.671875 14.765625 -15.0625 15.484375 -14.28125 C 16.210938 -13.507812 16.769531 -12.617188 17.15625 -11.609375 C 17.550781 -10.609375 17.75 -9.550781 17.75 -8.4375 Z M 5.109375 -10.09375 L 13.828125 -10.09375 C 13.773438 -10.707031 13.546875 -11.265625 13.140625 -11.765625 C 12.742188 -12.265625 12.226562 -12.664062 11.59375 -12.96875 C 10.96875 -13.28125 10.28125 -13.4375 9.53125 -13.4375 C 8.882812 -13.4375 8.265625 -13.316406 7.671875 -13.078125 C 7.078125 -12.835938 6.554688 -12.472656 6.109375 -11.984375 C 5.660156 -11.492188 5.328125 -10.863281 5.109375 -10.09375 Z M 5.109375 -10.09375 "/></g></g></g><g fill="#676767" fill-opacity="1"><g transform="translate(64.637106, 37.663735)"><g><path d="M 6.078125 0 L 2.25 0 L 2.25 -22.328125 L 6.078125 -22.328125 Z M 6.078125 0 "/></g></g></g><g fill="#676767" fill-opacity="1"><g transform="translate(70.941607, 37.663735)"><g><path d="M 9.65625 0.484375 C 8.414062 0.484375 7.269531 0.265625 6.21875 -0.171875 C 5.175781 -0.617188 4.269531 -1.238281 3.5 -2.03125 C 2.738281 -2.820312 2.144531 -3.738281 1.71875 -4.78125 C 1.300781 -5.832031 1.09375 -6.953125 1.09375 -8.140625 C 1.09375 -9.335938 1.300781 -10.457031 1.71875 -11.5 C 2.144531 -12.539062 2.738281 -13.457031 3.5 -14.25 C 4.269531 -15.039062 5.175781 -15.660156 6.21875 -16.109375 C 7.269531 -16.554688 8.421875 -16.78125 9.671875 -16.78125 C 10.921875 -16.78125 12.066406 -16.554688 13.109375 -16.109375 C 14.160156 -15.660156 15.070312 -15.039062 15.84375 -14.25 C 16.613281 -13.457031 17.207031 -12.539062 17.625 -11.5 C 18.050781 -10.457031 18.265625 -9.335938 18.265625 -8.140625 C 18.265625 -6.941406 18.050781 -5.820312 17.625 -4.78125 C 17.207031 -3.738281 16.613281 -2.820312 15.84375 -2.03125 C 15.070312 -1.238281 14.160156 -0.617188 13.109375 -0.171875 C 12.054688 0.265625 10.90625 0.484375 9.65625 0.484375 Z M 9.6875 -3.078125 C 10.601562 -3.078125 11.421875 -3.296875 12.140625 -3.734375 C 12.859375 -4.171875 13.425781 -4.769531 13.84375 -5.53125 C 14.257812 -6.289062 14.46875 -7.160156 14.46875 -8.140625 C 14.46875 -9.128906 14.257812 -10.003906 13.84375 -10.765625 C 13.425781 -11.535156 12.859375 -12.140625 12.140625 -12.578125 C 11.421875 -13.015625 10.601562 -13.234375 9.6875 -13.234375 C 8.769531 -13.234375 7.945312 -13.015625 7.21875 -12.578125 C 6.5 -12.140625 5.929688 -11.535156 5.515625 -10.765625 C 5.097656 -10.003906 4.890625 -9.128906 4.890625 -8.140625 C 4.890625 -7.160156 5.097656 -6.289062 5.515625 -5.53125 C 5.929688 -4.769531 6.5 -4.171875 7.21875 -3.734375 C 7.945312 -3.296875 8.769531 -3.078125 9.6875 -3.078125 Z M 9.6875 -3.078125 "/></g></g></g><g fill="#676767" fill-opacity="1"><g transform="translate(88.287351, 37.663735)"><g><path d="M 6.078125 0 L 2.25 0 L 2.25 -16.296875 L 5.921875 -16.296875 L 5.921875 -13.34375 C 6.304688 -14.238281 6.867188 -14.953125 7.609375 -15.484375 C 8.347656 -16.023438 9.242188 -16.296875 10.296875 -16.296875 L 12.046875 -16.296875 L 12.046875 -13 L 10.5 -13 C 9.625 -13 8.851562 -12.785156 8.1875 -12.359375 C 7.519531 -11.929688 7 -11.316406 6.625 -10.515625 C 6.257812 -9.710938 6.078125 -8.734375 6.078125 -7.578125 Z M 6.078125 0 "/></g></g></g><g fill="#676767" fill-opacity="1"><g transform="translate(98.805585, 37.663735)"><g><path d="M 17.75 -8.4375 C 17.75 -8.226562 17.742188 -8.035156 17.734375 -7.859375 C 17.722656 -7.679688 17.703125 -7.4375 17.671875 -7.125 L 4.9375 -7.125 C 5.082031 -6.238281 5.367188 -5.484375 5.796875 -4.859375 C 6.222656 -4.242188 6.75 -3.769531 7.375 -3.4375 C 8.007812 -3.101562 8.703125 -2.9375 9.453125 -2.9375 C 10.429688 -2.9375 11.21875 -3.128906 11.8125 -3.515625 C 12.414062 -3.898438 12.859375 -4.4375 13.140625 -5.125 L 17.3125 -5.125 C 17.113281 -4.394531 16.785156 -3.691406 16.328125 -3.015625 C 15.867188 -2.335938 15.304688 -1.734375 14.640625 -1.203125 C 13.972656 -0.679688 13.207031 -0.269531 12.34375 0.03125 C 11.488281 0.332031 10.554688 0.484375 9.546875 0.484375 C 8.316406 0.484375 7.1875 0.257812 6.15625 -0.1875 C 5.125 -0.632812 4.226562 -1.253906 3.46875 -2.046875 C 2.71875 -2.835938 2.132812 -3.753906 1.71875 -4.796875 C 1.300781 -5.847656 1.09375 -6.960938 1.09375 -8.140625 C 1.09375 -9.335938 1.300781 -10.457031 1.71875 -11.5 C 2.132812 -12.539062 2.71875 -13.457031 3.46875 -14.25 C 4.226562 -15.039062 5.125 -15.660156 6.15625 -16.109375 C 7.1875 -16.554688 8.316406 -16.78125 9.546875 -16.78125 C 10.765625 -16.78125 11.878906 -16.554688 12.890625 -16.109375 C 13.898438 -15.671875 14.765625 -15.0625 15.484375 -14.28125 C 16.210938 -13.507812 16.769531 -12.617188 17.15625 -11.609375 C 17.550781 -10.609375 17.75 -9.550781 17.75 -8.4375 Z M 5.109375 -10.09375 L 13.828125 -10.09375 C 13.773438 -10.707031 13.546875 -11.265625 13.140625 -11.765625 C 12.742188 -12.265625 12.226562 -12.664062 11.59375 -12.96875 C 10.96875 -13.28125 10.28125 -13.4375 9.53125 -13.4375 C 8.882812 -13.4375 8.265625 -13.316406 7.671875 -13.078125 C 7.078125 -12.835938 6.554688 -12.472656 6.109375 -11.984375 C 5.660156 -11.492188 5.328125 -10.863281 5.109375 -10.09375 Z M 5.109375 -10.09375 "/></g></g></g></svg>