<svg xmlns="http://www.w3.org/2000/svg" xmlns:xlink="http://www.w3.org/1999/xlink" width="200" zoomAndPan="magnify" viewBox="0 0 150 60" height="80" preserveAspectRatio="xMidYMid meet" version="1.0"><defs><g/></defs><g fill="#676767" fill-opacity="1"><g transform="translate(24.249614, 40.5)"><g><path d="M 11.671875 0.390625 C 10.453125 0.390625 9.390625 0.164062 8.484375 -0.28125 C 7.578125 -0.738281 6.835938 -1.378906 6.265625 -2.203125 L 5.8125 0 L 2.109375 0 L 2.109375 -23.40625 L 6.265625 -23.40625 L 6.265625 -13.8125 C 6.785156 -14.53125 7.472656 -15.160156 8.328125 -15.703125 C 9.191406 -16.242188 10.304688 -16.515625 11.671875 -16.515625 C 13.179688 -16.515625 14.53125 -16.144531 15.71875 -15.40625 C 16.914062 -14.664062 17.859375 -13.65625 18.546875 -12.375 C 19.242188 -11.101562 19.59375 -9.65625 19.59375 -8.03125 C 19.59375 -6.40625 19.242188 -4.957031 18.546875 -3.6875 C 17.859375 -2.414062 16.914062 -1.414062 15.71875 -0.6875 C 14.53125 0.03125 13.179688 0.390625 11.671875 0.390625 Z M 10.796875 -3.25 C 12.109375 -3.25 13.195312 -3.691406 14.0625 -4.578125 C 14.9375 -5.472656 15.375 -6.625 15.375 -8.03125 C 15.375 -9.4375 14.9375 -10.59375 14.0625 -11.5 C 13.195312 -12.414062 12.109375 -12.875 10.796875 -12.875 C 9.453125 -12.875 8.347656 -12.421875 7.484375 -11.515625 C 6.628906 -10.617188 6.203125 -9.46875 6.203125 -8.0625 C 6.203125 -6.65625 6.628906 -5.5 7.484375 -4.59375 C 8.347656 -3.695312 9.453125 -3.25 10.796875 -3.25 Z M 10.796875 -3.25 "/></g></g></g><g fill="#676767" fill-opacity="1"><g transform="translate(43.974533, 40.5)"><g><path d="M 9.9375 0.390625 C 8.3125 0.390625 6.867188 0.046875 5.609375 -0.640625 C 4.359375 -1.335938 3.375 -2.3125 2.65625 -3.5625 C 1.945312 -4.820312 1.59375 -6.28125 1.59375 -7.9375 C 1.59375 -9.601562 1.941406 -11.082031 2.640625 -12.375 C 3.347656 -13.675781 4.320312 -14.691406 5.5625 -15.421875 C 6.8125 -16.148438 8.285156 -16.515625 9.984375 -16.515625 C 11.554688 -16.515625 12.945312 -16.164062 14.15625 -15.46875 C 15.375 -14.78125 16.320312 -13.832031 17 -12.625 C 17.6875 -11.425781 18.03125 -10.085938 18.03125 -8.609375 C 18.03125 -8.367188 18.023438 -8.117188 18.015625 -7.859375 C 18.003906 -7.597656 17.988281 -7.328125 17.96875 -7.046875 L 5.71875 -7.046875 C 5.800781 -5.796875 6.238281 -4.8125 7.03125 -4.09375 C 7.820312 -3.375 8.78125 -3.015625 9.90625 -3.015625 C 10.757812 -3.015625 11.472656 -3.203125 12.046875 -3.578125 C 12.617188 -3.960938 13.046875 -4.457031 13.328125 -5.0625 L 17.546875 -5.0625 C 17.242188 -4.050781 16.738281 -3.128906 16.03125 -2.296875 C 15.332031 -1.460938 14.46875 -0.804688 13.4375 -0.328125 C 12.40625 0.148438 11.238281 0.390625 9.9375 0.390625 Z M 9.984375 -13.125 C 8.960938 -13.125 8.0625 -12.835938 7.28125 -12.265625 C 6.5 -11.691406 6 -10.820312 5.78125 -9.65625 L 13.8125 -9.65625 C 13.75 -10.71875 13.359375 -11.5625 12.640625 -12.1875 C 11.921875 -12.8125 11.035156 -13.125 9.984375 -13.125 Z M 9.984375 -13.125 "/></g></g></g><g fill="#676767" fill-opacity="1"><g transform="translate(61.944662, 40.5)"><g><path d="M 2.109375 0 L 2.109375 -23.40625 L 6.265625 -23.40625 L 6.265625 0 Z M 2.109375 0 "/></g></g></g><g fill="#676767" fill-opacity="1"><g transform="translate(68.898639, 40.5)"><g><path d="M 2.109375 0 L 2.109375 -23.40625 L 6.265625 -23.40625 L 6.265625 0 Z M 2.109375 0 "/></g></g></g><g fill="#676767" fill-opacity="1"><g transform="translate(75.852618, 40.5)"><g><path d="M 7.671875 0.390625 C 6.285156 0.390625 5.144531 0.171875 4.25 -0.265625 C 3.363281 -0.710938 2.703125 -1.304688 2.265625 -2.046875 C 1.835938 -2.785156 1.625 -3.597656 1.625 -4.484375 C 1.625 -5.984375 2.207031 -7.195312 3.375 -8.125 C 4.550781 -9.050781 6.304688 -9.515625 8.640625 -9.515625 L 12.734375 -9.515625 L 12.734375 -9.90625 C 12.734375 -11.007812 12.421875 -11.820312 11.796875 -12.34375 C 11.171875 -12.863281 10.390625 -13.125 9.453125 -13.125 C 8.609375 -13.125 7.875 -12.921875 7.25 -12.515625 C 6.625 -12.117188 6.234375 -11.53125 6.078125 -10.75 L 2.015625 -10.75 C 2.117188 -11.925781 2.507812 -12.945312 3.1875 -13.8125 C 3.875 -14.675781 4.757812 -15.34375 5.84375 -15.8125 C 6.925781 -16.28125 8.140625 -16.515625 9.484375 -16.515625 C 11.785156 -16.515625 13.597656 -15.9375 14.921875 -14.78125 C 16.242188 -13.632812 16.90625 -12.007812 16.90625 -9.90625 L 16.90625 0 L 13.359375 0 L 12.96875 -2.59375 C 12.488281 -1.726562 11.820312 -1.015625 10.96875 -0.453125 C 10.113281 0.109375 9.015625 0.390625 7.671875 0.390625 Z M 8.609375 -2.859375 C 9.804688 -2.859375 10.734375 -3.25 11.390625 -4.03125 C 12.046875 -4.8125 12.460938 -5.773438 12.640625 -6.921875 L 9.09375 -6.921875 C 7.988281 -6.921875 7.195312 -6.71875 6.71875 -6.3125 C 6.25 -5.914062 6.015625 -5.425781 6.015625 -4.84375 C 6.015625 -4.21875 6.25 -3.726562 6.71875 -3.375 C 7.195312 -3.03125 7.828125 -2.859375 8.609375 -2.859375 Z M 8.609375 -2.859375 "/></g></g></g><g fill="#676767" fill-opacity="1"><g transform="translate(93.140337, 40.5)"><g><path d="M 2.109375 0 L 2.109375 -16.125 L 5.8125 -16.125 L 6.203125 -13.09375 C 6.785156 -14.132812 7.582031 -14.960938 8.59375 -15.578125 C 9.601562 -16.203125 10.789062 -16.515625 12.15625 -16.515625 L 12.15625 -12.125 L 10.984375 -12.125 C 10.078125 -12.125 9.265625 -11.984375 8.546875 -11.703125 C 7.828125 -11.421875 7.265625 -10.929688 6.859375 -10.234375 C 6.460938 -9.546875 6.265625 -8.582031 6.265625 -7.34375 L 6.265625 0 Z M 2.109375 0 "/></g></g></g><g fill="#676767" fill-opacity="1"><g transform="translate(104.546274, 40.5)"><g><path d="M 9.515625 0.390625 C 8.003906 0.390625 6.648438 0.0234375 5.453125 -0.703125 C 4.265625 -1.441406 3.320312 -2.453125 2.625 -3.734375 C 1.9375 -5.015625 1.59375 -6.46875 1.59375 -8.09375 C 1.59375 -9.71875 1.9375 -11.160156 2.625 -12.421875 C 3.320312 -13.691406 4.265625 -14.691406 5.453125 -15.421875 C 6.648438 -16.148438 8.003906 -16.515625 9.515625 -16.515625 C 10.734375 -16.515625 11.796875 -16.285156 12.703125 -15.828125 C 13.617188 -15.367188 14.359375 -14.726562 14.921875 -13.90625 L 14.921875 -23.40625 L 19.078125 -23.40625 L 19.078125 0 L 15.375 0 L 14.921875 -2.3125 C 14.398438 -1.59375 13.707031 -0.960938 12.84375 -0.421875 C 11.988281 0.117188 10.878906 0.390625 9.515625 0.390625 Z M 10.40625 -3.25 C 11.75 -3.25 12.847656 -3.695312 13.703125 -4.59375 C 14.554688 -5.5 14.984375 -6.65625 14.984375 -8.0625 C 14.984375 -9.46875 14.554688 -10.617188 13.703125 -11.515625 C 12.847656 -12.421875 11.75 -12.875 10.40625 -12.875 C 9.082031 -12.875 7.984375 -12.425781 7.109375 -11.53125 C 6.242188 -10.644531 5.8125 -9.5 5.8125 -8.09375 C 5.8125 -6.6875 6.242188 -5.523438 7.109375 -4.609375 C 7.984375 -3.703125 9.082031 -3.25 10.40625 -3.25 Z M 10.40625 -3.25 "/></g></g></g></svg>