<svg xmlns="http://www.w3.org/2000/svg" xmlns:xlink="http://www.w3.org/1999/xlink" width="40" zoomAndPan="magnify" viewBox="0 0 30 30.000001" height="40" preserveAspectRatio="xMidYMid meet" version="1.0"><defs><clipPath id="c01e44d5a7"><path d="M 2.300781 6.183594 L 27.707031 6.183594 L 27.707031 22 L 2.300781 22 Z M 2.300781 6.183594 " clip-rule="nonzero"/></clipPath><clipPath id="20a84e3115"><path d="M 5 22 L 25 22 L 25 22.875 L 5 22.875 Z M 5 22 " clip-rule="nonzero"/></clipPath></defs><g clip-path="url(#c01e44d5a7)"><path fill="#000000" d="M 26.113281 6.183594 L 3.890625 6.183594 C 3.683594 6.183594 3.480469 6.222656 3.285156 6.304688 C 3.089844 6.386719 2.917969 6.5 2.769531 6.648438 C 2.621094 6.796875 2.507812 6.96875 2.425781 7.164062 C 2.34375 7.359375 2.304688 7.5625 2.304688 7.773438 L 2.304688 19.695312 C 2.304688 19.90625 2.34375 20.109375 2.425781 20.304688 C 2.507812 20.5 2.621094 20.671875 2.769531 20.820312 C 2.917969 20.96875 3.089844 21.085938 3.285156 21.164062 C 3.480469 21.246094 3.683594 21.285156 3.890625 21.285156 L 26.113281 21.285156 C 26.324219 21.285156 26.527344 21.246094 26.722656 21.164062 C 26.917969 21.085938 27.089844 20.96875 27.238281 20.820312 C 27.386719 20.671875 27.5 20.5 27.582031 20.304688 C 27.660156 20.109375 27.703125 19.90625 27.703125 19.695312 L 27.703125 7.773438 C 27.703125 7.5625 27.660156 7.359375 27.582031 7.164062 C 27.5 6.96875 27.386719 6.796875 27.238281 6.648438 C 27.089844 6.5 26.917969 6.386719 26.722656 6.304688 C 26.527344 6.222656 26.324219 6.183594 26.113281 6.183594 Z M 26.910156 19.695312 C 26.910156 19.917969 26.832031 20.105469 26.675781 20.257812 C 26.519531 20.414062 26.335938 20.492188 26.113281 20.492188 L 3.890625 20.492188 C 3.671875 20.492188 3.484375 20.414062 3.332031 20.257812 C 3.175781 20.105469 3.097656 19.917969 3.097656 19.695312 L 3.097656 7.773438 C 3.097656 7.554688 3.175781 7.367188 3.332031 7.210938 C 3.484375 7.054688 3.671875 6.976562 3.890625 6.976562 L 26.113281 6.976562 C 26.335938 6.976562 26.519531 7.054688 26.675781 7.210938 C 26.832031 7.367188 26.910156 7.554688 26.910156 7.773438 Z M 26.910156 19.695312 " fill-opacity="1" fill-rule="nonzero"/></g><g clip-path="url(#20a84e3115)"><path fill="#000000" d="M 24.128906 22.875 C 24.242188 22.875 24.332031 22.835938 24.410156 22.761719 C 24.488281 22.683594 24.527344 22.589844 24.527344 22.480469 C 24.527344 22.371094 24.488281 22.277344 24.410156 22.199219 C 24.332031 22.121094 24.242188 22.082031 24.128906 22.082031 L 5.875 22.082031 C 5.765625 22.082031 5.671875 22.121094 5.597656 22.199219 C 5.519531 22.277344 5.480469 22.371094 5.480469 22.480469 C 5.480469 22.589844 5.519531 22.683594 5.597656 22.761719 C 5.671875 22.835938 5.765625 22.875 5.875 22.875 Z M 24.128906 22.875 " fill-opacity="1" fill-rule="nonzero"/></g><path fill="#000000" d="M 5.679688 16.515625 C 5.746094 16.515625 5.808594 16.5 5.871094 16.46875 L 9.296875 14.574219 L 12.71875 16.101562 C 12.824219 16.148438 12.933594 16.148438 13.039062 16.101562 L 16.476562 14.566406 L 19.914062 16.125 C 20.015625 16.171875 20.117188 16.171875 20.222656 16.132812 L 24.472656 14.503906 C 24.574219 14.464844 24.648438 14.394531 24.691406 14.292969 C 24.738281 14.195312 24.742188 14.09375 24.703125 13.988281 C 24.664062 13.886719 24.59375 13.8125 24.492188 13.769531 C 24.390625 13.722656 24.289062 13.722656 24.1875 13.761719 L 20.089844 15.332031 L 16.640625 13.769531 C 16.535156 13.722656 16.425781 13.722656 16.316406 13.769531 L 12.878906 15.300781 L 9.441406 13.769531 C 9.320312 13.714844 9.203125 13.71875 9.085938 13.785156 L 5.488281 15.769531 C 5.308594 15.871094 5.242188 16.019531 5.292969 16.21875 C 5.34375 16.417969 5.472656 16.515625 5.679688 16.515625 Z M 5.679688 16.515625 " fill-opacity="1" fill-rule="nonzero"/><path fill="#000000" d="M 14.605469 11.746094 L 15.398438 11.746094 L 15.398438 13.308594 L 15.996094 13.042969 C 16.058594 13.015625 16.125 12.992188 16.195312 12.976562 L 16.195312 11.746094 C 16.195312 11.527344 16.117188 11.339844 15.960938 11.183594 C 15.804688 11.03125 15.621094 10.953125 15.398438 10.953125 L 14.605469 10.953125 C 14.386719 10.953125 14.199219 11.03125 14.046875 11.183594 C 13.890625 11.339844 13.8125 11.527344 13.8125 11.746094 L 13.8125 14.015625 L 14.605469 13.660156 Z M 14.605469 11.746094 " fill-opacity="1" fill-rule="nonzero"/><path fill="#000000" d="M 11.035156 9.761719 L 11.828125 9.761719 L 11.828125 13.964844 L 12.621094 14.316406 L 12.621094 9.761719 C 12.621094 9.539062 12.546875 9.351562 12.390625 9.199219 C 12.234375 9.042969 12.046875 8.964844 11.828125 8.964844 L 11.035156 8.964844 C 10.816406 8.964844 10.628906 9.042969 10.472656 9.199219 C 10.320312 9.351562 10.242188 9.539062 10.242188 9.761719 L 10.242188 13.257812 L 11.035156 13.609375 Z M 11.035156 9.761719 " fill-opacity="1" fill-rule="nonzero"/><path fill="#000000" d="M 24.328125 18.902344 L 23.335938 18.902344 L 23.335938 15.789062 L 22.542969 16.09375 L 22.542969 18.902344 L 21.75 18.902344 L 21.75 16.398438 L 20.957031 16.703125 L 20.957031 18.902344 L 19.765625 18.902344 L 19.765625 16.910156 C 19.703125 16.894531 19.644531 16.875 19.589844 16.847656 L 18.972656 16.570312 L 18.972656 18.902344 L 18.179688 18.902344 L 18.179688 16.210938 L 17.382812 15.851562 L 17.382812 18.902344 L 16.195312 18.902344 L 16.195312 15.5625 L 15.398438 15.917969 L 15.398438 18.902344 L 14.605469 18.902344 L 14.605469 16.273438 L 13.8125 16.625 L 13.8125 18.902344 L 12.621094 18.902344 L 12.621094 16.902344 C 12.542969 16.882812 12.46875 16.859375 12.394531 16.828125 L 11.828125 16.574219 L 11.828125 18.902344 L 11.035156 18.902344 L 11.035156 16.222656 L 10.242188 15.867188 L 10.242188 18.902344 L 9.050781 18.902344 L 9.050781 15.621094 L 8.257812 16.058594 L 8.257812 18.902344 L 7.464844 18.902344 L 7.464844 16.496094 L 6.671875 16.933594 L 6.671875 18.902344 L 5.679688 18.902344 C 5.570312 18.902344 5.476562 18.941406 5.398438 19.019531 C 5.320312 19.097656 5.28125 19.191406 5.28125 19.300781 C 5.28125 19.410156 5.320312 19.503906 5.398438 19.582031 C 5.476562 19.65625 5.570312 19.695312 5.679688 19.695312 L 24.328125 19.695312 C 24.4375 19.695312 24.53125 19.65625 24.609375 19.582031 C 24.6875 19.503906 24.726562 19.410156 24.726562 19.300781 C 24.726562 19.191406 24.6875 19.097656 24.609375 19.019531 C 24.53125 18.941406 24.4375 18.902344 24.328125 18.902344 Z M 24.328125 18.902344 " fill-opacity="1" fill-rule="nonzero"/><path fill="#000000" d="M 7.464844 11.945312 L 8.257812 11.945312 L 8.257812 13.335938 L 8.703125 13.089844 C 8.8125 13.027344 8.929688 12.988281 9.050781 12.964844 L 9.050781 11.945312 C 9.050781 11.726562 8.972656 11.539062 8.820312 11.382812 C 8.664062 11.230469 8.476562 11.152344 8.257812 11.152344 L 7.464844 11.152344 C 7.246094 11.152344 7.058594 11.230469 6.902344 11.382812 C 6.746094 11.539062 6.671875 11.726562 6.671875 11.945312 L 6.671875 14.210938 L 7.464844 13.773438 Z M 7.464844 11.945312 " fill-opacity="1" fill-rule="nonzero"/><path fill="#000000" d="M 18.179688 9.761719 L 18.972656 9.761719 L 18.972656 13.953125 L 19.765625 14.3125 L 19.765625 9.761719 C 19.765625 9.539062 19.6875 9.351562 19.53125 9.199219 C 19.378906 9.042969 19.191406 8.964844 18.972656 8.964844 L 18.179688 8.964844 C 17.960938 8.964844 17.773438 9.042969 17.617188 9.199219 C 17.460938 9.351562 17.382812 9.539062 17.382812 9.761719 L 17.382812 13.234375 L 18.179688 13.59375 Z M 18.179688 9.761719 " fill-opacity="1" fill-rule="nonzero"/><path fill="#000000" d="M 21.75 11.746094 L 22.542969 11.746094 L 22.542969 13.539062 L 23.335938 13.234375 L 23.335938 11.746094 C 23.335938 11.527344 23.257812 11.339844 23.105469 11.183594 C 22.949219 11.03125 22.761719 10.953125 22.542969 10.953125 L 21.75 10.953125 C 21.53125 10.953125 21.34375 11.03125 21.1875 11.183594 C 21.035156 11.339844 20.957031 11.527344 20.957031 11.746094 L 20.957031 14.148438 L 21.75 13.84375 Z M 21.75 11.746094 " fill-opacity="1" fill-rule="nonzero"/></svg>