<svg xmlns="http://www.w3.org/2000/svg" xmlns:xlink="http://www.w3.org/1999/xlink" width="40" zoomAndPan="magnify" viewBox="0 0 30 30.000001" height="40" preserveAspectRatio="xMidYMid meet" version="1.0"><defs><clipPath id="738e5064cc"><path d="M 3.386719 2.25 L 28.066406 2.25 L 28.066406 26.925781 L 3.386719 26.925781 Z M 3.386719 2.25 " clip-rule="nonzero"/></clipPath></defs><g clip-path="url(#738e5064cc)"><path fill="#000000" d="M 15.726562 2.25 C 8.921875 2.25 3.386719 7.78125 3.386719 14.589844 C 3.386719 21.394531 8.921875 26.925781 15.726562 26.925781 C 22.53125 26.925781 28.066406 21.394531 28.066406 14.589844 C 28.066406 7.78125 22.53125 2.25 15.726562 2.25 Z M 27.230469 14.175781 L 16.136719 14.175781 L 16.136719 3.085938 C 22.160156 3.296875 27.015625 8.15625 27.230469 14.175781 Z M 8.488281 15 L 11.035156 15 L 5.734375 20.300781 C 5.417969 19.75 5.140625 19.171875 4.921875 18.574219 Z M 4.640625 17.691406 C 4.394531 16.832031 4.253906 15.933594 4.222656 15 L 7.332031 15 Z M 12.191406 15 L 14.734375 15 L 7.300781 22.429688 C 6.890625 21.992188 6.515625 21.515625 6.175781 21.023438 Z M 15.316406 15.578125 L 15.316406 18.125 L 9.292969 24.136719 C 8.796875 23.796875 8.324219 23.425781 7.886719 23.015625 Z M 15.316406 19.28125 L 15.316406 21.824219 L 11.742188 25.390625 C 11.144531 25.171875 10.566406 24.898438 10.011719 24.582031 Z M 15.316406 22.980469 L 15.316406 26.09375 C 14.382812 26.058594 13.484375 25.917969 12.621094 25.675781 Z M 15.316406 3.085938 L 15.316406 14.175781 L 4.222656 14.175781 C 4.433594 8.15625 9.292969 3.296875 15.316406 3.085938 Z M 16.136719 26.09375 L 16.136719 15 L 27.230469 15 C 27.015625 21.023438 22.160156 25.878906 16.136719 26.09375 Z M 16.136719 26.09375 " fill-opacity="1" fill-rule="nonzero"/></g><path fill="#000000" d="M 6.265625 13.355469 L 7.089844 13.355469 C 7.546875 13.355469 7.910156 12.988281 7.910156 12.53125 L 7.910156 11.296875 C 7.910156 10.84375 7.546875 10.476562 7.089844 10.476562 L 6.265625 10.476562 C 5.808594 10.476562 5.445312 10.84375 5.445312 11.296875 L 5.445312 12.53125 C 5.445312 12.988281 5.808594 13.355469 6.265625 13.355469 Z M 6.265625 11.296875 L 7.089844 11.296875 L 7.089844 12.53125 L 6.265625 12.53125 Z M 6.265625 11.296875 " fill-opacity="1" fill-rule="nonzero"/><path fill="#000000" d="M 9.554688 13.355469 L 10.378906 13.355469 C 10.835938 13.355469 11.203125 12.988281 11.203125 12.53125 L 11.203125 9.242188 C 11.203125 8.785156 10.835938 8.417969 10.378906 8.417969 L 9.554688 8.417969 C 9.101562 8.417969 8.734375 8.785156 8.734375 9.242188 L 8.734375 12.53125 C 8.734375 12.988281 9.101562 13.355469 9.554688 13.355469 Z M 9.554688 9.242188 L 10.378906 9.242188 L 10.378906 12.53125 L 9.554688 12.53125 Z M 9.554688 9.242188 " fill-opacity="1" fill-rule="nonzero"/><path fill="#000000" d="M 12.847656 13.355469 L 13.667969 13.355469 C 14.125 13.355469 14.492188 12.988281 14.492188 12.53125 L 14.492188 6.773438 C 14.492188 6.316406 14.125 5.953125 13.667969 5.953125 L 12.847656 5.953125 C 12.390625 5.953125 12.023438 6.316406 12.023438 6.773438 L 12.023438 12.53125 C 12.023438 12.988281 12.390625 13.355469 12.847656 13.355469 Z M 12.847656 6.773438 L 13.667969 6.773438 L 13.667969 12.53125 L 12.847656 12.53125 Z M 12.847656 6.773438 " fill-opacity="1" fill-rule="nonzero"/><path fill="#000000" d="M 17.082031 12.820312 C 17.160156 12.90625 17.269531 12.945312 17.371094 12.945312 C 17.472656 12.945312 17.582031 12.90625 17.660156 12.820312 L 19.839844 10.648438 L 21.195312 12 C 21.355469 12.160156 21.613281 12.160156 21.773438 12 L 23.953125 9.828125 L 23.953125 10.886719 C 23.953125 11.113281 24.136719 11.296875 24.363281 11.296875 C 24.585938 11.296875 24.773438 11.113281 24.773438 10.886719 L 24.773438 8.832031 C 24.773438 8.605469 24.585938 8.417969 24.363281 8.417969 L 22.304688 8.417969 C 22.082031 8.417969 21.894531 8.605469 21.894531 8.832031 C 21.894531 9.054688 22.082031 9.242188 22.304688 9.242188 L 23.375 9.242188 L 21.484375 11.132812 L 20.128906 9.773438 C 19.96875 9.613281 19.710938 9.613281 19.550781 9.773438 L 17.082031 12.242188 C 16.921875 12.402344 16.921875 12.660156 17.082031 12.820312 Z M 17.082031 12.820312 " fill-opacity="1" fill-rule="nonzero"/><path fill="#000000" d="M 21.515625 18.894531 C 21.597656 19.105469 21.835938 19.203125 22.050781 19.121094 C 22.261719 19.035156 22.363281 18.792969 22.273438 18.585938 C 22.035156 17.996094 21.4375 17.601562 20.660156 17.5 L 20.660156 17.054688 C 20.660156 16.832031 20.476562 16.644531 20.25 16.644531 C 20.023438 16.644531 19.839844 16.832031 19.839844 17.054688 L 19.839844 17.492188 C 18.886719 17.628906 18.195312 18.199219 18.195312 18.90625 C 18.195312 19.882812 19.0625 20.148438 19.839844 20.28125 L 19.839844 21.542969 C 19.421875 21.464844 19.101562 21.257812 18.984375 20.976562 C 18.902344 20.769531 18.664062 20.667969 18.449219 20.75 C 18.238281 20.835938 18.136719 21.078125 18.226562 21.285156 C 18.464844 21.875 19.066406 22.269531 19.839844 22.371094 L 19.839844 22.816406 C 19.839844 23.039062 20.023438 23.226562 20.25 23.226562 C 20.476562 23.226562 20.660156 23.039062 20.660156 22.816406 L 20.660156 22.378906 C 21.613281 22.242188 22.304688 21.671875 22.304688 20.964844 C 22.304688 19.992188 21.4375 19.722656 20.660156 19.589844 L 20.660156 18.328125 C 21.085938 18.414062 21.398438 18.613281 21.515625 18.894531 Z M 19.015625 18.90625 C 19.015625 18.683594 19.355469 18.433594 19.839844 18.335938 L 19.839844 19.445312 C 19.246094 19.324219 19.015625 19.195312 19.015625 18.90625 Z M 21.484375 20.964844 C 21.484375 21.1875 21.144531 21.4375 20.660156 21.535156 L 20.660156 20.425781 C 21.253906 20.546875 21.484375 20.675781 21.484375 20.964844 Z M 21.484375 20.964844 " fill-opacity="1" fill-rule="nonzero"/></svg>