<svg xmlns="http://www.w3.org/2000/svg" xmlns:xlink="http://www.w3.org/1999/xlink" width="40" zoomAndPan="magnify" viewBox="0 0 30 30.000001" height="40" preserveAspectRatio="xMidYMid meet" version="1.0"><defs><clipPath id="17ec121b15"><path d="M 2.207031 2.425781 L 27.609375 2.425781 L 27.609375 26.378906 L 2.207031 26.378906 Z M 2.207031 2.425781 " clip-rule="nonzero"/></clipPath></defs><g clip-path="url(#17ec121b15)"><path fill="#000000" d="M 18.429688 12.921875 C 15.777344 12.921875 13.628906 15.066406 13.628906 17.707031 C 13.628906 20.351562 15.777344 22.496094 18.429688 22.496094 C 19.609375 22.496094 20.691406 22.070312 21.527344 21.363281 L 22.894531 22.703125 L 22.839844 22.757812 C 22.660156 22.945312 22.664062 23.246094 22.851562 23.425781 L 25.710938 26.195312 C 25.898438 26.378906 26.199219 26.375 26.382812 26.1875 L 27.417969 25.125 C 27.597656 24.9375 27.59375 24.636719 27.40625 24.457031 L 24.542969 21.683594 C 24.355469 21.503906 24.054688 21.507812 23.875 21.695312 L 23.808594 21.757812 L 22.40625 20.386719 C 22.921875 19.621094 23.226562 18.699219 23.226562 17.707031 C 23.226562 15.066406 21.078125 12.921875 18.429688 12.921875 Z M 15.40625 4.03125 L 20.246094 12.394531 C 19.730469 12.21875 19.183594 12.117188 18.617188 12.097656 L 14.3125 4.660156 C 14.136719 4.355469 13.890625 4.113281 13.597656 3.945312 C 13.308594 3.777344 12.972656 3.6875 12.621094 3.6875 C 12.273438 3.6875 11.9375 3.777344 11.644531 3.945312 C 11.363281 4.109375 11.125 4.34375 10.949219 4.636719 C 10.941406 4.644531 10.9375 4.652344 10.933594 4.660156 L 3.894531 16.824219 C 3.714844 17.132812 3.628906 17.464844 3.628906 17.800781 C 3.628906 18.132812 3.714844 18.464844 3.894531 18.773438 C 4.070312 19.078125 4.316406 19.320312 4.605469 19.488281 C 4.898438 19.65625 5.234375 19.746094 5.582031 19.746094 L 13.183594 19.746094 C 13.359375 20.199219 13.59375 20.621094 13.875 21.003906 L 5.582031 21.003906 C 4.425781 21.003906 3.378906 20.402344 2.800781 19.402344 C 2.222656 18.402344 2.222656 17.195312 2.800781 16.195312 L 9.839844 4.03125 C 10.417969 3.03125 11.464844 2.429688 12.621094 2.429688 C 13.78125 2.429688 14.828125 3.03125 15.40625 4.03125 Z M 12.621094 15.023438 C 12.136719 15.023438 11.742188 15.417969 11.742188 15.902344 C 11.742188 16.386719 12.136719 16.78125 12.621094 16.78125 C 12.714844 16.78125 12.800781 16.765625 12.882812 16.742188 C 12.828125 17.054688 12.800781 17.378906 12.800781 17.707031 C 12.800781 18.125 12.847656 18.53125 12.933594 18.921875 L 5.582031 18.921875 C 5.375 18.921875 5.183594 18.867188 5.019531 18.773438 C 4.851562 18.679688 4.710938 18.539062 4.609375 18.359375 C 4.507812 18.183594 4.457031 17.992188 4.457031 17.800781 C 4.457031 17.605469 4.507812 17.414062 4.609375 17.238281 L 11.648438 5.074219 C 11.652344 5.066406 11.65625 5.0625 11.660156 5.054688 C 11.761719 4.886719 11.898438 4.75 12.058594 4.660156 C 12.222656 4.566406 12.414062 4.515625 12.621094 4.515625 C 12.832031 4.515625 13.023438 4.566406 13.1875 4.660156 C 13.355469 4.753906 13.496094 4.894531 13.597656 5.074219 L 17.6875 12.144531 C 15.742188 12.398438 14.109375 13.644531 13.316406 15.359375 C 13.15625 15.15625 12.902344 15.023438 12.621094 15.023438 Z M 12.621094 14.105469 C 12.992188 14.105469 13.296875 13.8125 13.308594 13.445312 L 13.484375 8.648438 C 13.488281 8.453125 13.425781 8.285156 13.292969 8.144531 C 13.15625 8.007812 12.988281 7.9375 12.796875 7.9375 C 12.550781 7.9375 12.695312 7.9375 12.449219 7.9375 C 12.253906 7.9375 12.089844 8.007812 11.953125 8.144531 C 11.820312 8.285156 11.753906 8.453125 11.761719 8.648438 L 11.9375 13.445312 C 11.949219 13.8125 12.253906 14.105469 12.621094 14.105469 Z M 18.429688 14.324219 C 20.300781 14.324219 21.820312 15.839844 21.820312 17.707031 C 21.820312 19.578125 20.300781 21.09375 18.429688 21.09375 C 16.554688 21.09375 15.035156 19.578125 15.035156 17.707031 C 15.035156 15.839844 16.554688 14.324219 18.429688 14.324219 Z M 18.429688 14.324219 " fill-opacity="1" fill-rule="evenodd"/></g></svg>