<svg xmlns="http://www.w3.org/2000/svg" xmlns:xlink="http://www.w3.org/1999/xlink" width="40" zoomAndPan="magnify" viewBox="0 0 30 30.000001" height="40" preserveAspectRatio="xMidYMid meet" version="1.0"><defs><clipPath id="0f8d5d7c01"><path d="M 16 24 L 25 24 L 25 26.964844 L 16 26.964844 Z M 16 24 " clip-rule="nonzero"/></clipPath><clipPath id="801fd9a58b"><path d="M 22 10 L 27.449219 10 L 27.449219 26 L 22 26 Z M 22 10 " clip-rule="nonzero"/></clipPath><clipPath id="106021b250"><path d="M 5 24 L 14 24 L 14 26.964844 L 5 26.964844 Z M 5 24 " clip-rule="nonzero"/></clipPath><clipPath id="6935b2aeba"><path d="M 7 2.285156 L 23 2.285156 L 23 15 L 7 15 Z M 7 2.285156 " clip-rule="nonzero"/></clipPath></defs><g clip-path="url(#0f8d5d7c01)"><path fill="#000000" d="M 17.324219 26.964844 C 16.757812 26.964844 16.292969 26.53125 16.261719 25.960938 L 16.230469 24.867188 C 16.21875 24.628906 16.410156 24.417969 16.652344 24.417969 L 23.972656 24.164062 C 24.078125 24.164062 24.199219 24.207031 24.289062 24.285156 C 24.378906 24.359375 24.421875 24.464844 24.421875 24.582031 L 24.46875 25.675781 C 24.46875 25.960938 24.363281 26.230469 24.183594 26.425781 C 23.988281 26.632812 23.71875 26.753906 23.449219 26.769531 Z M 17.117188 25.273438 L 17.128906 25.929688 C 17.144531 26.019531 17.21875 26.109375 17.324219 26.109375 L 23.417969 25.902344 C 23.480469 25.902344 23.523438 25.855469 23.539062 25.839844 C 23.570312 25.824219 23.597656 25.78125 23.597656 25.707031 L 23.570312 25.046875 Z M 17.117188 25.273438 " fill-opacity="1" fill-rule="evenodd"/></g><path fill="#000000" d="M 17.9375 25.242188 C 17.773438 25.242188 17.609375 25.136719 17.535156 24.988281 C 17.503906 24.898438 16.652344 22.921875 18.238281 21.320312 C 18.359375 21.214844 18.582031 20.972656 18.898438 20.660156 C 20.003906 19.535156 22.070312 17.441406 22.730469 16.828125 C 23.433594 16.183594 24.226562 16.363281 24.691406 16.839844 C 25.171875 17.351562 25.335938 18.1875 24.796875 18.726562 L 22.339844 21.199219 C 22.160156 21.363281 21.890625 21.363281 21.726562 21.199219 C 21.546875 21.019531 21.546875 20.75 21.726562 20.585938 L 24.183594 18.128906 C 24.347656 17.964844 24.242188 17.636719 24.0625 17.457031 C 23.914062 17.289062 23.644531 17.15625 23.316406 17.46875 C 22.671875 18.054688 20.621094 20.152344 19.511719 21.273438 C 19.195312 21.589844 18.972656 21.828125 18.851562 21.933594 C 17.683594 23.117188 18.328125 24.613281 18.328125 24.628906 C 18.433594 24.835938 18.328125 25.105469 18.117188 25.195312 C 18.058594 25.226562 18 25.242188 17.9375 25.242188 Z M 17.9375 25.242188 " fill-opacity="1" fill-rule="evenodd"/><g clip-path="url(#801fd9a58b)"><path fill="#000000" d="M 22.804688 25.078125 C 22.699219 25.078125 22.597656 25.03125 22.507812 24.957031 C 22.339844 24.808594 22.3125 24.523438 22.476562 24.34375 L 25.742188 20.703125 C 26.144531 20.074219 26.144531 19.746094 26.160156 19.101562 C 26.160156 18.953125 26.160156 18.804688 26.160156 18.636719 L 26.175781 18.144531 C 26.234375 16.496094 26.371094 12.632812 26.085938 11.71875 C 26.011719 11.496094 25.574219 11.285156 25.113281 11.359375 C 24.722656 11.421875 24.527344 11.644531 24.527344 12.035156 L 24.601562 16.976562 C 24.601562 17.214844 24.421875 17.410156 24.183594 17.410156 C 24.167969 17.410156 24.167969 17.410156 24.167969 17.410156 C 23.929688 17.410156 23.734375 17.230469 23.734375 16.992188 L 23.660156 12.050781 C 23.644531 11.226562 24.152344 10.625 24.976562 10.492188 C 25.742188 10.386719 26.683594 10.714844 26.910156 11.464844 C 27.207031 12.4375 27.132812 15.449219 27.042969 18.175781 L 27.027344 18.667969 C 27.027344 18.832031 27.027344 18.96875 27.027344 19.101562 C 27.011719 19.792969 27.011719 20.34375 26.445312 21.199219 C 26.445312 21.230469 26.429688 21.242188 26.414062 21.257812 L 23.121094 24.925781 C 23.046875 25.03125 22.925781 25.078125 22.804688 25.078125 Z M 22.804688 25.078125 " fill-opacity="1" fill-rule="evenodd"/></g><g clip-path="url(#106021b250)"><path fill="#000000" d="M 12.90625 26.964844 L 12.878906 26.964844 L 6.785156 26.769531 C 6.5 26.753906 6.246094 26.632812 6.050781 26.425781 C 5.855469 26.230469 5.75 25.960938 5.765625 25.675781 L 5.808594 24.582031 C 5.808594 24.34375 6.019531 24.164062 6.257812 24.164062 L 13.582031 24.417969 C 13.6875 24.417969 13.804688 24.464844 13.882812 24.554688 C 13.957031 24.628906 14 24.746094 14 24.867188 L 13.957031 25.960938 C 13.941406 26.53125 13.476562 26.964844 12.90625 26.964844 Z M 6.664062 25.046875 L 6.632812 25.707031 C 6.632812 25.78125 6.664062 25.824219 6.679688 25.839844 C 6.707031 25.855469 6.738281 25.902344 6.8125 25.902344 L 12.90625 26.109375 C 13.011719 26.109375 13.085938 26.019531 13.085938 25.929688 L 13.117188 25.273438 Z M 6.664062 25.046875 " fill-opacity="1" fill-rule="evenodd"/></g><path fill="#000000" d="M 12.292969 25.242188 C 12.234375 25.242188 12.175781 25.226562 12.113281 25.195312 C 11.890625 25.105469 11.800781 24.851562 11.890625 24.628906 C 11.917969 24.566406 12.535156 23.101562 11.367188 21.933594 C 11.261719 21.828125 11.019531 21.589844 10.707031 21.273438 C 9.613281 20.152344 7.546875 18.054688 6.917969 17.46875 C 6.574219 17.15625 6.320312 17.289062 6.167969 17.457031 C 5.976562 17.636719 5.886719 17.964844 6.050781 18.128906 L 8.503906 20.585938 C 8.671875 20.75 8.671875 21.019531 8.503906 21.199219 C 8.339844 21.363281 8.054688 21.363281 7.890625 21.199219 L 5.4375 18.742188 C 4.882812 18.1875 5.0625 17.351562 5.539062 16.839844 C 6.003906 16.363281 6.785156 16.183594 7.503906 16.839844 C 8.160156 17.441406 10.226562 19.535156 11.335938 20.660156 C 11.636719 20.972656 11.875 21.214844 11.980469 21.320312 C 13.582031 22.921875 12.726562 24.898438 12.683594 24.988281 C 12.609375 25.136719 12.457031 25.242188 12.292969 25.242188 Z M 12.292969 25.242188 " fill-opacity="1" fill-rule="evenodd"/><path fill="#000000" d="M 7.425781 25.078125 C 7.308594 25.078125 7.1875 25.03125 7.097656 24.925781 L 3.816406 21.257812 C 3.804688 21.242188 3.789062 21.230469 3.773438 21.199219 C 3.21875 20.34375 3.203125 19.792969 3.203125 19.101562 C 3.203125 18.96875 3.203125 18.832031 3.203125 18.667969 L 3.175781 18.175781 C 3.085938 15.449219 3.007812 12.4375 3.308594 11.464844 C 3.535156 10.714844 4.492188 10.386719 5.242188 10.492188 C 6.078125 10.625 6.574219 11.226562 6.558594 12.050781 L 6.5 16.992188 C 6.484375 17.230469 6.289062 17.425781 6.050781 17.410156 C 5.808594 17.410156 5.617188 17.214844 5.628906 16.976562 L 5.707031 12.035156 C 5.707031 11.644531 5.511719 11.421875 5.105469 11.359375 C 4.65625 11.285156 4.207031 11.496094 4.148438 11.71875 C 3.863281 12.632812 3.996094 16.496094 4.042969 18.160156 L 4.058594 18.636719 C 4.074219 18.804688 4.074219 18.953125 4.074219 19.101562 C 4.074219 19.746094 4.085938 20.074219 4.492188 20.703125 L 7.757812 24.34375 C 7.90625 24.523438 7.890625 24.808594 7.710938 24.957031 C 7.636719 25.03125 7.53125 25.078125 7.425781 25.078125 Z M 7.425781 25.078125 " fill-opacity="1" fill-rule="evenodd"/><path fill="#000000" d="M 19.707031 8.964844 L 17.355469 8.964844 C 17.117188 8.964844 16.921875 8.769531 16.921875 8.53125 C 16.921875 8.289062 17.117188 8.097656 17.355469 8.097656 L 19.707031 8.097656 C 19.945312 8.097656 20.140625 8.289062 20.140625 8.53125 C 20.140625 8.769531 19.945312 8.964844 19.707031 8.964844 Z M 19.707031 8.964844 " fill-opacity="1" fill-rule="evenodd"/><path fill="#000000" d="M 19.707031 6.179688 L 17.355469 6.179688 C 17.117188 6.179688 16.921875 5.984375 16.921875 5.746094 C 16.921875 5.503906 17.117188 5.3125 17.355469 5.3125 L 19.707031 5.3125 C 19.945312 5.3125 20.140625 5.503906 20.140625 5.746094 C 20.140625 5.984375 19.945312 6.179688 19.707031 6.179688 Z M 19.707031 6.179688 " fill-opacity="1" fill-rule="evenodd"/><path fill="#000000" d="M 12.878906 8.964844 L 10.511719 8.964844 C 10.273438 8.964844 10.078125 8.769531 10.078125 8.53125 C 10.078125 8.289062 10.273438 8.097656 10.511719 8.097656 L 12.878906 8.097656 C 13.117188 8.097656 13.3125 8.289062 13.3125 8.53125 C 13.3125 8.769531 13.117188 8.964844 12.878906 8.964844 Z M 12.878906 8.964844 " fill-opacity="1" fill-rule="evenodd"/><path fill="#000000" d="M 12.878906 6.179688 L 10.511719 6.179688 C 10.273438 6.179688 10.078125 5.984375 10.078125 5.746094 C 10.078125 5.503906 10.273438 5.3125 10.511719 5.3125 L 12.878906 5.3125 C 13.117188 5.3125 13.3125 5.503906 13.3125 5.746094 C 13.3125 5.984375 13.117188 6.179688 12.878906 6.179688 Z M 12.878906 6.179688 " fill-opacity="1" fill-rule="evenodd"/><g clip-path="url(#6935b2aeba)"><path fill="#000000" d="M 21.953125 14.773438 L 19.601562 14.773438 C 19.363281 14.773438 19.167969 14.582031 19.167969 14.339844 C 19.167969 14.101562 19.363281 13.90625 19.601562 13.90625 L 21.519531 13.90625 L 21.519531 3.15625 L 15.542969 3.15625 L 15.542969 9.488281 C 15.542969 9.726562 15.347656 9.921875 15.109375 9.921875 C 14.871094 9.921875 14.675781 9.726562 14.675781 9.488281 L 14.675781 3.15625 L 8.714844 3.15625 L 8.714844 13.90625 L 10.632812 13.90625 C 10.871094 13.90625 11.066406 14.101562 11.066406 14.339844 C 11.066406 14.582031 10.871094 14.773438 10.632812 14.773438 L 8.28125 14.773438 C 8.042969 14.773438 7.847656 14.582031 7.847656 14.339844 L 7.847656 2.71875 C 7.847656 2.480469 8.042969 2.285156 8.28125 2.285156 L 21.953125 2.285156 C 22.191406 2.285156 22.386719 2.480469 22.386719 2.71875 L 22.386719 14.339844 C 22.386719 14.582031 22.191406 14.773438 21.953125 14.773438 Z M 21.953125 14.773438 " fill-opacity="1" fill-rule="evenodd"/></g><path fill="#000000" d="M 15.46875 18.894531 L 14.765625 18.894531 C 14.316406 18.894531 13.941406 18.519531 13.941406 18.070312 L 13.941406 17.515625 C 13.761719 17.457031 13.597656 17.394531 13.433594 17.304688 L 13.058594 17.695312 C 12.894531 17.859375 12.683594 17.933594 12.472656 17.933594 C 12.25 17.933594 12.039062 17.859375 11.890625 17.695312 L 11.394531 17.199219 C 11.066406 16.886719 11.066406 16.363281 11.394531 16.03125 L 11.769531 15.644531 C 11.695312 15.492188 11.621094 15.3125 11.574219 15.148438 L 11.019531 15.148438 C 10.570312 15.148438 10.199219 14.773438 10.199219 14.324219 L 10.199219 13.621094 C 10.199219 13.171875 10.570312 12.796875 11.019531 12.796875 L 11.574219 12.796875 C 11.621094 12.632812 11.695312 12.453125 11.769531 12.304688 L 11.394531 11.914062 C 11.066406 11.585938 11.066406 11.0625 11.394531 10.746094 L 11.890625 10.253906 C 12.039062 10.101562 12.25 10.011719 12.472656 10.011719 C 12.683594 10.011719 12.894531 10.101562 13.058594 10.253906 L 13.433594 10.640625 C 13.597656 10.550781 13.761719 10.492188 13.941406 10.433594 L 13.941406 9.878906 C 13.941406 9.429688 14.316406 9.054688 14.765625 9.054688 L 15.46875 9.054688 C 15.917969 9.054688 16.292969 9.429688 16.292969 9.878906 L 16.292969 10.433594 C 16.457031 10.492188 16.621094 10.550781 16.785156 10.640625 L 17.175781 10.253906 C 17.324219 10.101562 17.535156 10.011719 17.757812 10.011719 C 17.984375 10.011719 18.195312 10.101562 18.34375 10.253906 L 18.835938 10.746094 C 19.152344 11.0625 19.152344 11.585938 18.835938 11.914062 L 18.449219 12.304688 C 18.539062 12.453125 18.597656 12.632812 18.65625 12.796875 L 19.195312 12.796875 C 19.660156 12.796875 20.035156 13.171875 20.035156 13.621094 L 20.035156 14.324219 C 20.035156 14.773438 19.660156 15.148438 19.195312 15.148438 L 18.65625 15.148438 C 18.597656 15.3125 18.539062 15.492188 18.449219 15.644531 L 18.835938 16.03125 C 19.152344 16.363281 19.152344 16.886719 18.835938 17.199219 L 18.34375 17.695312 C 18.195312 17.859375 17.984375 17.933594 17.757812 17.933594 C 17.535156 17.933594 17.324219 17.859375 17.175781 17.695312 L 16.785156 17.304688 C 16.621094 17.394531 16.457031 17.457031 16.292969 17.515625 L 16.292969 18.070312 C 16.292969 18.519531 15.917969 18.894531 15.46875 18.894531 Z M 14.808594 18.023438 L 15.421875 18.023438 L 15.421875 17.1875 C 15.421875 16.992188 15.558594 16.8125 15.753906 16.765625 C 16.066406 16.691406 16.367188 16.570312 16.636719 16.40625 C 16.800781 16.300781 17.027344 16.316406 17.175781 16.46875 L 17.757812 17.050781 L 18.195312 16.617188 L 17.609375 16.03125 C 17.460938 15.882812 17.429688 15.660156 17.550781 15.492188 C 17.714844 15.222656 17.835938 14.925781 17.910156 14.625 C 17.953125 14.414062 18.132812 14.28125 18.328125 14.28125 L 19.167969 14.28125 L 19.167969 13.667969 L 18.328125 13.667969 C 18.132812 13.667969 17.953125 13.53125 17.910156 13.335938 C 17.835938 13.023438 17.714844 12.722656 17.550781 12.453125 C 17.429688 12.289062 17.460938 12.0625 17.609375 11.914062 L 18.195312 11.332031 L 17.757812 10.894531 L 17.175781 11.480469 C 17.027344 11.628906 16.800781 11.644531 16.636719 11.539062 C 16.367188 11.375 16.066406 11.253906 15.753906 11.179688 C 15.558594 11.136719 15.421875 10.957031 15.421875 10.761719 L 15.421875 9.921875 L 14.808594 9.921875 L 14.808594 10.761719 C 14.808594 10.957031 14.660156 11.136719 14.464844 11.179688 C 14.164062 11.253906 13.867188 11.375 13.597656 11.539062 C 13.417969 11.644531 13.207031 11.628906 13.058594 11.480469 L 12.472656 10.894531 L 12.039062 11.332031 L 12.625 11.914062 C 12.757812 12.0625 12.789062 12.289062 12.683594 12.453125 C 12.519531 12.722656 12.398438 13.023438 12.324219 13.335938 C 12.277344 13.53125 12.097656 13.667969 11.90625 13.667969 L 11.066406 13.667969 L 11.066406 14.28125 L 11.90625 14.28125 C 12.097656 14.28125 12.277344 14.414062 12.324219 14.625 C 12.398438 14.925781 12.519531 15.222656 12.683594 15.492188 C 12.789062 15.660156 12.757812 15.882812 12.625 16.03125 L 12.039062 16.617188 L 12.472656 17.050781 L 13.058594 16.46875 C 13.191406 16.316406 13.417969 16.300781 13.597656 16.40625 C 13.867188 16.570312 14.164062 16.691406 14.464844 16.765625 C 14.660156 16.8125 14.808594 16.992188 14.808594 17.1875 Z M 14.808594 18.023438 " fill-opacity="1" fill-rule="evenodd"/><path fill="#000000" d="M 15.109375 16.078125 C 13.957031 16.078125 12.996094 15.132812 12.996094 13.980469 C 12.996094 12.8125 13.957031 11.871094 15.109375 11.871094 C 16.277344 11.871094 17.21875 12.8125 17.21875 13.980469 C 17.21875 15.132812 16.277344 16.078125 15.109375 16.078125 Z M 15.109375 12.738281 C 14.433594 12.738281 13.867188 13.292969 13.867188 13.980469 C 13.867188 14.65625 14.433594 15.222656 15.109375 15.222656 C 15.796875 15.222656 16.351562 14.65625 16.351562 13.980469 C 16.351562 13.292969 15.796875 12.738281 15.109375 12.738281 Z M 15.109375 12.738281 " fill-opacity="1" fill-rule="evenodd"/></svg>