<svg xmlns="http://www.w3.org/2000/svg" xmlns:xlink="http://www.w3.org/1999/xlink" width="40" zoomAndPan="magnify" viewBox="0 0 30 30.000001" height="40" preserveAspectRatio="xMidYMid meet" version="1.0"><defs><clipPath id="75024e5ef4"><path d="M 1.472656 3.390625 L 28.328125 3.390625 L 28.328125 25.890625 L 1.472656 25.890625 Z M 1.472656 3.390625 " clip-rule="nonzero"/></clipPath></defs><g clip-path="url(#75024e5ef4)"><path fill="#000000" d="M 23.195312 18.867188 C 23.484375 19.203125 23.660156 19.59375 23.722656 20.035156 C 23.789062 20.476562 23.730469 20.902344 23.546875 21.308594 C 23.367188 21.71875 23.089844 22.042969 22.722656 22.285156 C 22.351562 22.527344 21.949219 22.648438 21.511719 22.648438 L 8.289062 22.648438 C 7.847656 22.648438 7.445312 22.527344 7.078125 22.285156 C 6.707031 22.042969 6.433594 21.71875 6.25 21.308594 C 6.070312 20.902344 6.011719 20.476562 6.074219 20.035156 C 6.140625 19.59375 6.316406 19.203125 6.605469 18.867188 C 7.292969 18.066406 7.824219 17.164062 8.191406 16.167969 C 8.558594 15.167969 8.742188 14.136719 8.742188 13.070312 L 8.742188 10.890625 C 8.742188 10.5 8.78125 10.109375 8.851562 9.722656 C 8.925781 9.335938 9.03125 8.960938 9.171875 8.597656 C 9.316406 8.230469 9.488281 7.882812 9.695312 7.550781 C 9.902344 7.21875 10.136719 6.90625 10.398438 6.621094 C 10.664062 6.332031 10.949219 6.074219 11.261719 5.839844 C 11.574219 5.609375 11.902344 5.40625 12.25 5.238281 C 12.597656 5.070312 12.960938 4.9375 13.332031 4.835938 C 13.707031 4.734375 14.085938 4.671875 14.472656 4.644531 C 14.46875 4.636719 14.464844 4.632812 14.464844 4.625 L 14.464844 3.839844 C 14.464844 3.71875 14.507812 3.613281 14.59375 3.527344 C 14.675781 3.441406 14.78125 3.398438 14.898438 3.398438 C 15.019531 3.398438 15.121094 3.441406 15.207031 3.527344 C 15.289062 3.613281 15.332031 3.71875 15.332031 3.839844 L 15.332031 4.625 C 15.332031 4.632812 15.328125 4.636719 15.328125 4.644531 C 15.710938 4.671875 16.089844 4.734375 16.464844 4.835938 C 16.839844 4.9375 17.199219 5.070312 17.546875 5.238281 C 17.894531 5.40625 18.226562 5.609375 18.539062 5.839844 C 18.847656 6.074219 19.136719 6.332031 19.398438 6.621094 C 19.664062 6.90625 19.898438 7.21875 20.105469 7.550781 C 20.308594 7.882812 20.484375 8.230469 20.625 8.597656 C 20.765625 8.960938 20.875 9.335938 20.945312 9.722656 C 21.019531 10.109375 21.054688 10.5 21.054688 10.890625 L 21.054688 13.070312 C 21.054688 14.136719 21.238281 15.167969 21.605469 16.167969 C 21.976562 17.164062 22.503906 18.066406 23.195312 18.867188 Z M 6.945312 8.921875 C 6.851562 8.847656 6.742188 8.820312 6.625 8.835938 C 6.507812 8.847656 6.410156 8.90625 6.335938 9 C 5.136719 10.574219 4.414062 12.351562 4.167969 14.324219 C 4.152344 14.445312 4.179688 14.554688 4.253906 14.652344 C 4.328125 14.746094 4.421875 14.804688 4.542969 14.816406 C 4.558594 14.820312 4.578125 14.820312 4.597656 14.820312 C 4.707031 14.820312 4.800781 14.785156 4.882812 14.710938 C 4.964844 14.636719 5.011719 14.546875 5.027344 14.4375 C 5.253906 12.621094 5.917969 10.988281 7.019531 9.542969 C 7.09375 9.445312 7.125 9.335938 7.109375 9.214844 C 7.09375 9.09375 7.039062 8.996094 6.945312 8.921875 Z M 6.023438 6.078125 C 5.941406 5.992188 5.835938 5.949219 5.71875 5.949219 C 5.597656 5.949219 5.496094 5.992188 5.414062 6.078125 C 4.148438 7.355469 3.179688 8.835938 2.496094 10.507812 C 1.816406 12.183594 1.476562 13.929688 1.484375 15.742188 C 1.484375 15.863281 1.523438 15.964844 1.609375 16.054688 C 1.695312 16.140625 1.796875 16.183594 1.914062 16.183594 C 2.035156 16.183594 2.136719 16.140625 2.222656 16.054688 C 2.304688 15.964844 2.347656 15.863281 2.347656 15.742188 C 2.34375 14.046875 2.660156 12.414062 3.296875 10.847656 C 3.933594 9.28125 4.84375 7.898438 6.023438 6.703125 C 6.109375 6.617188 6.152344 6.511719 6.152344 6.390625 C 6.152344 6.269531 6.109375 6.164062 6.023438 6.078125 Z M 22.855469 8.921875 C 22.761719 8.996094 22.707031 9.09375 22.691406 9.214844 C 22.675781 9.335938 22.703125 9.445312 22.777344 9.542969 C 23.878906 10.988281 24.542969 12.621094 24.773438 14.4375 C 24.785156 14.546875 24.835938 14.636719 24.914062 14.710938 C 24.996094 14.785156 25.09375 14.820312 25.203125 14.820312 C 25.21875 14.820312 25.238281 14.820312 25.257812 14.816406 C 25.375 14.804688 25.472656 14.746094 25.542969 14.652344 C 25.617188 14.554688 25.648438 14.445312 25.632812 14.324219 C 25.382812 12.351562 24.660156 10.574219 23.460938 9 C 23.386719 8.90625 23.292969 8.847656 23.171875 8.835938 C 23.054688 8.820312 22.949219 8.847656 22.855469 8.921875 Z M 24.386719 6.078125 C 24.300781 5.996094 24.199219 5.953125 24.082031 5.957031 C 23.964844 5.957031 23.863281 6 23.78125 6.085938 C 23.695312 6.167969 23.652344 6.273438 23.652344 6.390625 C 23.652344 6.511719 23.691406 6.617188 23.773438 6.703125 C 24.957031 7.898438 25.863281 9.28125 26.5 10.847656 C 27.136719 12.414062 27.453125 14.046875 27.449219 15.742188 C 27.449219 15.863281 27.492188 15.964844 27.578125 16.054688 C 27.660156 16.140625 27.761719 16.183594 27.882812 16.183594 C 28.003906 16.183594 28.105469 16.140625 28.1875 16.054688 C 28.273438 15.964844 28.316406 15.863281 28.316406 15.742188 C 28.320312 13.929688 27.984375 12.183594 27.300781 10.507812 C 26.621094 8.835938 25.648438 7.355469 24.386719 6.078125 Z M 15.285156 25.878906 C 15.625 25.878906 15.957031 25.824219 16.277344 25.710938 C 16.601562 25.597656 16.898438 25.433594 17.167969 25.222656 C 17.4375 25.007812 17.664062 24.757812 17.851562 24.46875 C 18.039062 24.175781 18.175781 23.863281 18.261719 23.527344 L 12.308594 23.527344 C 12.390625 23.863281 12.527344 24.175781 12.714844 24.46875 C 12.902344 24.757812 13.132812 25.007812 13.402344 25.222656 C 13.671875 25.433594 13.964844 25.597656 14.289062 25.710938 C 14.609375 25.824219 14.941406 25.878906 15.285156 25.878906 Z M 15.285156 25.878906 " fill-opacity="1" fill-rule="nonzero"/></g></svg>