<svg xmlns="http://www.w3.org/2000/svg" xmlns:xlink="http://www.w3.org/1999/xlink" width="40" zoomAndPan="magnify" viewBox="0 0 30 30.000001" height="40" preserveAspectRatio="xMidYMid meet" version="1.0"><defs><clipPath id="ee791c957f"><path d="M 3.09375 2.082031 L 27.042969 2.082031 L 27.042969 26.757812 L 3.09375 26.757812 Z M 3.09375 2.082031 " clip-rule="nonzero"/></clipPath><clipPath id="08f2f66d5d"><path d="M 21 21 L 27 21 L 27 26.757812 L 21 26.757812 Z M 21 21 " clip-rule="nonzero"/></clipPath><clipPath id="1d3628df74"><path d="M 21 23 L 25 23 L 25 26.757812 L 21 26.757812 Z M 21 23 " clip-rule="nonzero"/></clipPath></defs><path fill="#000000" d="M 8.144531 6.113281 C 8.144531 5.789062 8.414062 5.523438 8.742188 5.523438 L 21.316406 5.523438 C 21.648438 5.523438 21.917969 5.789062 21.917969 6.113281 L 21.917969 9.269531 C 21.917969 9.597656 21.648438 9.863281 21.316406 9.863281 L 8.742188 9.863281 C 8.414062 9.863281 8.144531 9.597656 8.144531 9.269531 Z M 8.742188 10.632812 L 21.316406 10.632812 C 22.078125 10.632812 22.699219 10.019531 22.699219 9.269531 L 22.699219 6.113281 C 22.699219 5.367188 22.078125 4.753906 21.316406 4.753906 L 8.171875 4.753906 C 7.226562 4.832031 7.363281 5.742188 7.363281 6.113281 L 7.363281 9.996094 C 7.328125 10.726562 8.363281 10.632812 8.742188 10.632812 Z M 8.742188 10.632812 " fill-opacity="1" fill-rule="evenodd"/><g clip-path="url(#ee791c957f)"><path fill="#000000" d="M 21.480469 26.753906 C 21.699219 26.753906 21.871094 26.582031 21.871094 26.367188 C 21.871094 26.15625 21.699219 25.984375 21.480469 25.984375 L 5.238281 25.984375 C 4.863281 25.984375 4.523438 25.832031 4.277344 25.589844 C 4.027344 25.34375 3.875 25.007812 3.875 24.640625 L 3.875 4.199219 C 3.875 3.828125 4.027344 3.492188 4.277344 3.25 C 4.523438 3.007812 4.863281 2.855469 5.238281 2.855469 L 24.898438 2.855469 C 25.273438 2.855469 25.613281 3.007812 25.863281 3.25 C 26.109375 3.492188 26.261719 3.828125 26.261719 4.199219 L 26.261719 21.476562 C 26.261719 21.6875 26.4375 21.859375 26.652344 21.859375 C 26.867188 21.859375 27.042969 21.6875 27.042969 21.476562 L 27.042969 4.199219 C 27.042969 3.617188 26.800781 3.089844 26.414062 2.703125 C 26.027344 2.320312 25.488281 2.085938 24.898438 2.085938 L 5.238281 2.085938 C 4.648438 2.085938 4.113281 2.320312 3.722656 2.703125 C 3.335938 3.089844 3.09375 3.617188 3.09375 4.199219 L 3.09375 24.640625 C 3.09375 25.222656 3.335938 25.75 3.722656 26.132812 C 4.113281 26.515625 4.648438 26.753906 5.238281 26.753906 Z M 21.480469 26.753906 " fill-opacity="1" fill-rule="nonzero"/></g><path fill="#000000" d="M 6.304688 12.53125 C 6.089844 12.53125 5.914062 12.703125 5.914062 12.917969 C 5.914062 13.128906 6.089844 13.300781 6.304688 13.300781 L 24.0625 13.300781 C 24.277344 13.300781 24.453125 13.128906 24.453125 12.917969 C 24.453125 12.703125 24.277344 12.53125 24.0625 12.53125 Z M 6.304688 12.53125 " fill-opacity="1" fill-rule="nonzero"/><path fill="#000000" d="M 6.304688 15.949219 C 6.089844 15.949219 5.914062 16.121094 5.914062 16.335938 C 5.914062 16.546875 6.089844 16.722656 6.304688 16.722656 L 24.0625 16.722656 C 24.277344 16.722656 24.453125 16.546875 24.453125 16.335938 C 24.453125 16.121094 24.277344 15.949219 24.0625 15.949219 Z M 6.304688 15.949219 " fill-opacity="1" fill-rule="nonzero"/><path fill="#000000" d="M 6.304688 22.789062 C 6.089844 22.789062 5.914062 22.960938 5.914062 23.175781 C 5.914062 23.386719 6.089844 23.558594 6.304688 23.558594 L 16.019531 23.558594 C 16.238281 23.558594 16.414062 23.386719 16.414062 23.175781 C 16.414062 22.960938 16.238281 22.789062 16.019531 22.789062 Z M 6.304688 22.789062 " fill-opacity="1" fill-rule="nonzero"/><path fill="#000000" d="M 6.304688 19.371094 C 6.089844 19.371094 5.914062 19.542969 5.914062 19.753906 C 5.914062 19.96875 6.089844 20.140625 6.304688 20.140625 L 16.019531 20.140625 C 16.238281 20.140625 16.414062 19.96875 16.414062 19.753906 C 16.414062 19.542969 16.238281 19.371094 16.019531 19.371094 Z M 6.304688 19.371094 " fill-opacity="1" fill-rule="nonzero"/><g clip-path="url(#08f2f66d5d)"><path fill="#000000" d="M 21.851562 21.472656 C 21.636719 21.472656 21.464844 21.648438 21.464844 21.859375 C 21.46875 22.070312 21.644531 22.242188 21.859375 22.242188 C 22.410156 22.234375 22.960938 22.339844 23.480469 22.546875 C 23.976562 22.75 24.445312 23.050781 24.851562 23.449219 C 25.253906 23.847656 25.554688 24.300781 25.757812 24.785156 C 25.972656 25.289062 26.078125 25.828125 26.078125 26.367188 C 26.078125 26.582031 26.25 26.753906 26.46875 26.753906 C 26.683594 26.753906 26.859375 26.582031 26.859375 26.367188 C 26.859375 25.734375 26.730469 25.09375 26.480469 24.492188 C 26.238281 23.914062 25.878906 23.371094 25.402344 22.90625 C 24.925781 22.433594 24.371094 22.078125 23.777344 21.835938 C 23.160156 21.589844 22.507812 21.46875 21.851562 21.472656 Z M 21.851562 21.472656 " fill-opacity="1" fill-rule="nonzero"/></g><g clip-path="url(#1d3628df74)"><path fill="#000000" d="M 21.890625 23.332031 C 21.675781 23.332031 21.5 23.503906 21.5 23.71875 C 21.5 23.929688 21.675781 24.101562 21.890625 24.101562 C 22.195312 24.101562 22.492188 24.160156 22.773438 24.273438 C 23.042969 24.382812 23.292969 24.546875 23.515625 24.765625 C 23.738281 24.984375 23.90625 25.234375 24.015625 25.5 C 24.132812 25.777344 24.191406 26.074219 24.191406 26.367188 C 24.191406 26.582031 24.363281 26.753906 24.582031 26.753906 C 24.796875 26.753906 24.96875 26.582031 24.96875 26.367188 C 24.96875 25.972656 24.890625 25.578125 24.734375 25.207031 C 24.585938 24.847656 24.363281 24.511719 24.070312 24.222656 C 23.777344 23.933594 23.433594 23.714844 23.070312 23.5625 C 22.691406 23.410156 22.289062 23.332031 21.890625 23.332031 Z M 21.890625 23.332031 " fill-opacity="1" fill-rule="nonzero"/></g></svg>