<svg xmlns="http://www.w3.org/2000/svg" xmlns:xlink="http://www.w3.org/1999/xlink" width="40" zoomAndPan="magnify" viewBox="0 0 30 30.000001" height="40" preserveAspectRatio="xMidYMid meet" version="1.0"><defs><clipPath id="8935c2d767"><path d="M 1.269531 1.917969 L 28.851562 1.917969 L 28.851562 27.320312 L 1.269531 27.320312 Z M 1.269531 1.917969 " clip-rule="nonzero"/></clipPath></defs><g clip-path="url(#8935c2d767)"><path fill="#000000" d="M 7.714844 7.367188 C 7.714844 7.175781 7.867188 7.023438 8.054688 7.023438 L 13.351562 7.023438 C 13.542969 7.023438 13.695312 7.175781 13.695312 7.367188 C 13.695312 7.554688 13.542969 7.710938 13.351562 7.710938 L 8.054688 7.710938 C 7.867188 7.710938 7.714844 7.554688 7.714844 7.367188 Z M 8.054688 10.421875 L 13.351562 10.421875 C 13.542969 10.421875 13.695312 10.265625 13.695312 10.078125 C 13.695312 9.886719 13.542969 9.734375 13.351562 9.734375 L 8.054688 9.734375 C 7.867188 9.734375 7.714844 9.886719 7.714844 10.078125 C 7.714844 10.265625 7.867188 10.421875 8.054688 10.421875 Z M 8.054688 13.128906 L 19.980469 13.128906 C 20.167969 13.128906 20.324219 12.976562 20.324219 12.789062 C 20.324219 12.597656 20.167969 12.445312 19.980469 12.445312 L 8.054688 12.445312 C 7.867188 12.445312 7.714844 12.597656 7.714844 12.789062 C 7.714844 12.976562 7.867188 13.128906 8.054688 13.128906 Z M 19.980469 15.15625 L 8.054688 15.15625 C 7.867188 15.15625 7.714844 15.308594 7.714844 15.5 C 7.714844 15.6875 7.867188 15.84375 8.054688 15.84375 L 19.980469 15.84375 C 20.167969 15.84375 20.324219 15.6875 20.324219 15.5 C 20.324219 15.308594 20.167969 15.15625 19.980469 15.15625 Z M 19.980469 17.867188 L 8.054688 17.867188 C 7.867188 17.867188 7.714844 18.019531 7.714844 18.210938 C 7.714844 18.398438 7.867188 18.554688 8.054688 18.554688 L 19.980469 18.554688 C 20.167969 18.554688 20.324219 18.398438 20.324219 18.210938 C 20.324219 18.019531 20.167969 17.867188 19.980469 17.867188 Z M 19.980469 20.578125 L 8.054688 20.578125 C 7.867188 20.578125 7.714844 20.730469 7.714844 20.921875 C 7.714844 21.109375 7.867188 21.265625 8.054688 21.265625 L 19.980469 21.265625 C 20.167969 21.265625 20.324219 21.109375 20.324219 20.921875 C 20.324219 20.730469 20.167969 20.578125 19.980469 20.578125 Z M 28.40625 15.445312 L 27.828125 16.03125 C 27.605469 16.25 27.320312 16.359375 27.03125 16.359375 C 26.742188 16.359375 26.453125 16.25 26.234375 16.03125 L 23.414062 13.199219 C 23.125 12.910156 23.027344 12.5 23.121094 12.125 L 22.757812 11.765625 L 22.757812 22.867188 L 24.632812 22.867188 C 24.824219 22.867188 24.976562 23.019531 24.976562 23.207031 L 24.976562 25.09375 C 24.976562 26.324219 23.980469 27.324219 22.753906 27.324219 L 7.296875 27.324219 C 6.074219 27.324219 5.074219 26.324219 5.074219 25.09375 L 5.074219 8.960938 L 1.617188 8.960938 C 1.429688 8.960938 1.273438 8.804688 1.273438 8.617188 L 1.273438 6.710938 C 1.273438 5.46875 2.28125 4.457031 3.515625 4.457031 C 3.519531 4.457031 3.519531 4.457031 3.519531 4.457031 L 14.972656 4.457031 C 15.8125 2.945312 17.417969 1.921875 19.261719 1.921875 C 21.96875 1.921875 24.171875 4.132812 24.171875 6.847656 C 24.171875 7.847656 23.871094 8.777344 23.359375 9.554688 L 24.519531 10.722656 C 24.605469 10.699219 24.699219 10.6875 24.792969 10.6875 C 25.09375 10.6875 25.375 10.804688 25.585938 11.015625 L 28.40625 13.847656 C 28.847656 14.289062 28.847656 15.007812 28.40625 15.445312 Z M 22.941406 10.105469 C 22.804688 10.257812 22.660156 10.40625 22.507812 10.539062 L 23.488281 11.527344 L 23.921875 11.089844 Z M 15.039062 6.847656 C 15.039062 9.1875 16.933594 11.089844 19.261719 11.089844 C 21.589844 11.089844 23.484375 9.1875 23.484375 6.847656 C 23.484375 4.507812 21.589844 2.605469 19.261719 2.605469 C 16.933594 2.605469 15.039062 4.507812 15.039062 6.847656 Z M 1.960938 8.273438 L 5.074219 8.273438 L 5.074219 6.710938 C 5.074219 5.847656 4.378906 5.144531 3.519531 5.144531 C 2.65625 5.144531 1.960938 5.847656 1.960938 6.707031 Z M 24.292969 23.550781 L 9.519531 23.550781 L 9.519531 25.09375 C 9.519531 25.695312 9.28125 26.238281 8.898438 26.640625 L 22.753906 26.640625 C 23.601562 26.640625 24.292969 25.945312 24.292969 25.09375 Z M 22.074219 11.078125 L 21.960938 10.960938 C 21.183594 11.476562 20.257812 11.777344 19.261719 11.777344 C 16.554688 11.777344 14.355469 9.566406 14.355469 6.847656 C 14.355469 6.25 14.460938 5.675781 14.65625 5.144531 L 5.128906 5.144531 C 5.519531 5.550781 5.757812 6.101562 5.757812 6.707031 L 5.757812 25.09375 C 5.757812 25.945312 6.449219 26.640625 7.296875 26.640625 C 8.144531 26.640625 8.835938 25.945312 8.835938 25.09375 L 8.835938 23.207031 C 8.835938 23.019531 8.988281 22.867188 9.175781 22.867188 L 22.074219 22.867188 Z M 27.925781 14.332031 L 25.105469 11.503906 C 25.019531 11.417969 24.910156 11.371094 24.792969 11.371094 C 24.671875 11.371094 24.5625 11.417969 24.480469 11.503906 L 23.898438 12.085938 C 23.726562 12.257812 23.726562 12.542969 23.898438 12.714844 L 26.71875 15.546875 C 26.890625 15.71875 27.171875 15.71875 27.34375 15.546875 L 27.921875 14.960938 C 28.097656 14.789062 28.097656 14.507812 27.925781 14.332031 Z M 19.753906 8.378906 L 17.835938 8.378906 C 17.648438 8.378906 17.492188 8.535156 17.492188 8.722656 C 17.492188 8.914062 17.648438 9.066406 17.835938 9.066406 L 18.921875 9.066406 L 18.921875 9.863281 C 18.921875 10.050781 19.074219 10.203125 19.261719 10.203125 C 19.449219 10.203125 19.605469 10.050781 19.605469 9.863281 L 19.605469 9.066406 L 19.753906 9.066406 C 20.457031 9.066406 21.03125 8.492188 21.03125 7.785156 C 21.03125 7.078125 20.457031 6.503906 19.753906 6.503906 L 18.769531 6.503906 C 18.441406 6.503906 18.175781 6.238281 18.175781 5.910156 C 18.175781 5.582031 18.441406 5.316406 18.769531 5.316406 L 20.6875 5.316406 C 20.878906 5.316406 21.03125 5.160156 21.03125 4.972656 C 21.03125 4.78125 20.878906 4.628906 20.6875 4.628906 L 19.605469 4.628906 L 19.605469 3.835938 C 19.605469 3.644531 19.449219 3.492188 19.261719 3.492188 C 19.074219 3.492188 18.921875 3.644531 18.921875 3.835938 L 18.921875 4.628906 L 18.769531 4.628906 C 18.066406 4.628906 17.492188 5.203125 17.492188 5.910156 C 17.492188 6.617188 18.066406 7.191406 18.769531 7.191406 L 19.753906 7.191406 C 20.082031 7.191406 20.347656 7.457031 20.347656 7.785156 C 20.347656 8.117188 20.082031 8.378906 19.753906 8.378906 Z M 19.753906 8.378906 " fill-opacity="1" fill-rule="nonzero"/></g></svg>