<svg xmlns="http://www.w3.org/2000/svg" xmlns:xlink="http://www.w3.org/1999/xlink" width="200" zoomAndPan="magnify" viewBox="0 0 150 74.999997" height="100" preserveAspectRatio="xMidYMid meet" version="1.0"><defs><g/><clipPath id="2fd6560775"><path d="M 31 27 L 51.210938 27 L 51.210938 45 L 31 45 Z M 31 27 " clip-rule="nonzero"/></clipPath><clipPath id="db438fa96a"><path d="M 23 16.371094 L 41 16.371094 L 41 34 L 23 34 Z M 23 16.371094 " clip-rule="nonzero"/></clipPath><clipPath id="c979beb9b9"><path d="M 12 16.371094 L 30 16.371094 L 30 34 L 12 34 Z M 12 16.371094 " clip-rule="nonzero"/></clipPath><clipPath id="c00722adfa"><path d="M 23 38 L 41 38 L 41 55.371094 L 23 55.371094 Z M 23 38 " clip-rule="nonzero"/></clipPath><clipPath id="2bd9f2703e"><path d="M 12 38 L 30 38 L 30 55.371094 L 12 55.371094 Z M 12 38 " clip-rule="nonzero"/></clipPath><clipPath id="18d276d341"><path d="M 1.710938 27 L 19 27 L 19 45 L 1.710938 45 Z M 1.710938 27 " clip-rule="nonzero"/></clipPath></defs><g clip-path="url(#2fd6560775)"><path fill="#ffffff" d="M 45.402344 35.972656 L 42.90625 33.476562 L 40.410156 35.972656 L 42.90625 38.464844 Z M 42.90625 27.667969 C 43.054688 27.667969 43.199219 27.726562 43.3125 27.835938 L 51.042969 35.566406 C 51.148438 35.675781 51.207031 35.820312 51.207031 35.972656 C 51.207031 36.121094 51.148438 36.269531 51.042969 36.375 L 43.3125 44.105469 C 43.089844 44.328125 42.726562 44.328125 42.503906 44.105469 L 37.390625 38.992188 L 37.332031 39.050781 C 37.109375 39.273438 36.746094 39.273438 36.523438 39.050781 C 36.300781 38.828125 36.300781 38.46875 36.523438 38.242188 L 42.503906 32.265625 C 42.726562 32.042969 43.089844 32.042969 43.3125 32.265625 L 46.613281 35.566406 C 46.722656 35.675781 46.78125 35.820312 46.78125 35.972656 C 46.78125 36.121094 46.722656 36.269531 46.613281 36.375 L 43.3125 39.679688 C 43.089844 39.902344 42.726562 39.902344 42.503906 39.679688 L 39.605469 36.777344 L 38.199219 38.183594 L 42.90625 42.894531 L 49.832031 35.972656 L 42.90625 29.046875 L 32.28125 39.675781 C 32.054688 39.898438 31.695312 39.898438 31.472656 39.675781 C 31.25 39.453125 31.25 39.09375 31.472656 38.871094 L 42.503906 27.835938 C 42.613281 27.726562 42.761719 27.667969 42.90625 27.667969 " fill-opacity="1" fill-rule="nonzero"/></g><g clip-path="url(#db438fa96a)"><path fill="#ffffff" d="M 26.359375 26.578125 C 26.507812 26.578125 26.652344 26.632812 26.761719 26.746094 L 32.28125 32.261719 C 32.503906 32.484375 32.503906 32.847656 32.28125 33.070312 C 32.058594 33.292969 31.695312 33.292969 31.472656 33.070312 L 25.957031 27.554688 C 25.734375 27.332031 25.734375 26.96875 25.957031 26.746094 C 26.066406 26.632812 26.214844 26.578125 26.359375 26.578125 Z M 34.371094 24.9375 L 31.875 22.441406 L 29.378906 24.9375 L 31.875 27.433594 Z M 31.875 21.0625 C 32.027344 21.0625 32.171875 21.121094 32.28125 21.230469 L 35.582031 24.53125 C 35.804688 24.753906 35.804688 25.117188 35.582031 25.339844 L 32.28125 28.644531 C 32.066406 28.859375 31.6875 28.859375 31.472656 28.644531 L 28.167969 25.339844 C 27.945312 25.117188 27.945312 24.753906 28.167969 24.53125 L 31.472656 21.230469 C 31.578125 21.121094 31.722656 21.0625 31.875 21.0625 Z M 31.875 16.632812 C 32.027344 16.632812 32.171875 16.695312 32.28125 16.800781 L 40.011719 24.53125 C 40.234375 24.753906 40.234375 25.117188 40.011719 25.339844 L 34.496094 30.855469 C 34.273438 31.078125 33.910156 31.078125 33.6875 30.855469 C 33.464844 30.632812 33.464844 30.269531 33.6875 30.046875 L 38.796875 24.9375 L 31.875 18.011719 L 24.550781 25.339844 C 24.328125 25.5625 23.964844 25.5625 23.742188 25.339844 C 23.519531 25.117188 23.519531 24.753906 23.742188 24.53125 L 31.472656 16.800781 C 31.578125 16.695312 31.722656 16.632812 31.875 16.632812 " fill-opacity="1" fill-rule="nonzero"/></g><path fill="#ffffff" d="M 26.359375 37.609375 C 26.503906 37.609375 26.648438 37.667969 26.761719 37.777344 L 32.28125 43.296875 C 32.503906 43.519531 32.503906 43.882812 32.28125 44.105469 C 32.058594 44.328125 31.695312 44.328125 31.472656 44.105469 L 25.953125 38.585938 C 25.730469 38.363281 25.730469 38 25.953125 37.777344 C 26.066406 37.667969 26.210938 37.609375 26.359375 37.609375 Z M 39.605469 35.398438 C 39.753906 35.398438 39.898438 35.457031 40.011719 35.566406 C 40.234375 35.789062 40.234375 36.152344 40.011719 36.375 L 34.492188 41.894531 C 34.269531 42.117188 33.90625 42.117188 33.683594 41.894531 C 33.460938 41.671875 33.460938 41.308594 33.683594 41.085938 L 39.203125 35.566406 C 39.316406 35.457031 39.460938 35.398438 39.605469 35.398438 Z M 34.371094 35.96875 L 31.875 33.476562 L 29.378906 35.96875 L 31.875 38.464844 Z M 31.875 32.097656 C 32.023438 32.097656 32.167969 32.152344 32.28125 32.261719 L 35.585938 35.566406 C 35.691406 35.671875 35.75 35.820312 35.75 35.96875 C 35.75 36.121094 35.691406 36.265625 35.585938 36.375 L 32.28125 39.679688 C 32.058594 39.902344 31.695312 39.902344 31.472656 39.679688 L 28.167969 36.375 C 27.945312 36.152344 27.945312 35.789062 28.167969 35.566406 L 31.472656 32.261719 C 31.585938 32.152344 31.730469 32.097656 31.875 32.097656 Z M 29.664062 29.878906 C 29.8125 29.878906 29.957031 29.9375 30.070312 30.046875 C 30.292969 30.269531 30.292969 30.632812 30.070312 30.855469 L 24.550781 36.375 C 24.328125 36.597656 23.964844 36.597656 23.742188 36.375 C 23.519531 36.152344 23.519531 35.789062 23.742188 35.566406 L 29.261719 30.046875 C 29.375 29.9375 29.519531 29.878906 29.664062 29.878906 Z M 31.875 27.667969 C 32.023438 27.667969 32.167969 27.726562 32.28125 27.835938 L 37.796875 33.351562 C 38.019531 33.574219 38.019531 33.9375 37.796875 34.160156 C 37.570312 34.382812 37.210938 34.382812 36.988281 34.160156 L 31.472656 28.644531 C 31.25 28.421875 31.25 28.058594 31.472656 27.835938 C 31.585938 27.726562 31.730469 27.667969 31.875 27.667969 " fill-opacity="1" fill-rule="nonzero"/><path fill="#ffffff" d="M 31.875 32.097656 C 32.023438 32.097656 32.167969 32.152344 32.28125 32.261719 C 32.503906 32.484375 32.503906 32.847656 32.28125 33.070312 L 26.765625 38.585938 C 26.542969 38.808594 26.179688 38.808594 25.957031 38.585938 C 25.734375 38.363281 25.734375 38 25.957031 37.777344 L 31.472656 32.261719 C 31.585938 32.152344 31.730469 32.097656 31.875 32.097656 Z M 28.859375 30.449219 L 26.363281 27.957031 L 23.867188 30.449219 L 26.363281 32.945312 Z M 26.363281 26.578125 C 26.507812 26.578125 26.65625 26.632812 26.765625 26.742188 L 30.070312 30.046875 C 30.175781 30.15625 30.238281 30.300781 30.238281 30.449219 C 30.238281 30.601562 30.175781 30.746094 30.070312 30.855469 L 26.765625 34.160156 C 26.660156 34.265625 26.511719 34.324219 26.363281 34.324219 C 26.210938 34.324219 26.066406 34.265625 25.957031 34.160156 L 22.65625 30.855469 C 22.429688 30.632812 22.429688 30.269531 22.65625 30.046875 L 25.957031 26.742188 C 26.070312 26.632812 26.214844 26.578125 26.363281 26.578125 Z M 28.574219 24.363281 C 28.722656 24.363281 28.867188 24.417969 28.980469 24.53125 L 32.554688 28.105469 C 32.777344 28.328125 32.777344 28.691406 32.554688 28.914062 C 32.332031 29.136719 31.972656 29.136719 31.746094 28.914062 L 28.171875 25.335938 C 27.949219 25.113281 27.949219 24.753906 28.171875 24.53125 C 28.28125 24.417969 28.429688 24.363281 28.574219 24.363281 Z M 26.363281 22.148438 C 26.507812 22.148438 26.65625 22.207031 26.765625 22.316406 C 26.988281 22.539062 26.988281 22.902344 26.765625 23.125 L 21.34375 28.546875 C 21.121094 28.769531 20.761719 28.769531 20.535156 28.546875 C 20.3125 28.324219 20.3125 27.960938 20.535156 27.738281 L 25.957031 22.316406 C 26.070312 22.207031 26.214844 22.148438 26.363281 22.148438 " fill-opacity="1" fill-rule="nonzero"/><g clip-path="url(#c979beb9b9)"><path fill="#ffffff" d="M 23.339844 24.9375 L 20.84375 22.441406 L 18.347656 24.9375 L 20.84375 27.433594 Z M 20.84375 21.0625 C 20.988281 21.0625 21.136719 21.117188 21.246094 21.230469 L 24.550781 24.53125 C 24.773438 24.757812 24.773438 25.117188 24.550781 25.339844 L 21.652344 28.242188 L 23.058594 29.644531 L 28.171875 24.53125 C 28.394531 24.308594 28.753906 24.308594 28.976562 24.53125 C 29.199219 24.757812 29.199219 25.117188 28.976562 25.339844 L 23.464844 30.855469 C 23.433594 30.882812 23.402344 30.910156 23.371094 30.929688 C 23.148438 31.078125 22.847656 31.050781 22.652344 30.859375 L 17.136719 25.339844 C 17.027344 25.234375 16.96875 25.089844 16.96875 24.9375 C 16.96875 24.785156 17.027344 24.640625 17.136719 24.53125 L 20.441406 21.230469 C 20.550781 21.117188 20.695312 21.0625 20.84375 21.0625 Z M 20.84375 16.636719 C 20.988281 16.636719 21.136719 16.691406 21.246094 16.804688 L 26.761719 22.320312 C 26.988281 22.542969 26.988281 22.902344 26.761719 23.128906 C 26.539062 23.351562 26.179688 23.351562 25.957031 23.128906 L 20.84375 18.015625 L 13.921875 24.9375 L 21.246094 32.261719 C 21.46875 32.488281 21.46875 32.847656 21.246094 33.070312 C 21.023438 33.292969 20.664062 33.292969 20.441406 33.070312 L 12.707031 25.339844 C 12.601562 25.234375 12.542969 25.089844 12.542969 24.9375 C 12.542969 24.785156 12.601562 24.640625 12.707031 24.53125 L 20.441406 16.804688 C 20.550781 16.691406 20.695312 16.636719 20.84375 16.636719 " fill-opacity="1" fill-rule="nonzero"/></g><g clip-path="url(#c00722adfa)"><path fill="#ffffff" d="M 26.359375 44.214844 C 26.503906 44.214844 26.648438 44.273438 26.761719 44.382812 C 26.984375 44.605469 26.984375 44.96875 26.761719 45.191406 L 24.546875 47.40625 C 24.324219 47.628906 23.960938 47.628906 23.738281 47.40625 C 23.515625 47.183594 23.515625 46.824219 23.738281 46.601562 L 25.953125 44.382812 C 26.066406 44.273438 26.210938 44.214844 26.359375 44.214844 Z M 34.367188 47.003906 L 31.871094 44.507812 L 29.375 47.003906 L 31.871094 49.5 Z M 31.871094 43.128906 C 32.023438 43.128906 32.167969 43.191406 32.277344 43.296875 L 35.578125 46.601562 C 35.800781 46.824219 35.800781 47.183594 35.578125 47.40625 L 32.277344 50.710938 C 32.0625 50.925781 31.683594 50.925781 31.46875 50.710938 L 28.164062 47.40625 C 27.941406 47.183594 27.941406 46.824219 28.164062 46.601562 L 31.46875 43.296875 C 31.574219 43.191406 31.71875 43.128906 31.871094 43.128906 Z M 31.871094 38.703125 C 32.019531 38.703125 32.164062 38.757812 32.277344 38.871094 L 40.007812 46.601562 C 40.113281 46.707031 40.171875 46.851562 40.171875 47.003906 C 40.171875 47.15625 40.113281 47.300781 40.007812 47.40625 L 32.277344 55.136719 C 32.054688 55.359375 31.691406 55.359375 31.46875 55.136719 L 25.953125 49.621094 C 25.726562 49.398438 25.726562 49.035156 25.953125 48.8125 C 26.175781 48.589844 26.535156 48.589844 26.757812 48.8125 L 31.871094 53.925781 L 38.792969 47.003906 L 31.46875 39.675781 C 31.246094 39.453125 31.246094 39.09375 31.46875 38.871094 C 31.578125 38.757812 31.726562 38.703125 31.871094 38.703125 " fill-opacity="1" fill-rule="nonzero"/></g><path fill="#ffffff" d="M 31.875 43.128906 C 32.019531 43.128906 32.167969 43.183594 32.277344 43.292969 C 32.5 43.515625 32.5 43.878906 32.277344 44.101562 L 26.761719 49.617188 C 26.539062 49.839844 26.175781 49.839844 25.953125 49.617188 C 25.730469 49.394531 25.730469 49.035156 25.953125 48.8125 L 31.46875 43.292969 C 31.582031 43.183594 31.726562 43.128906 31.875 43.128906 Z M 28.851562 41.484375 L 26.359375 38.988281 L 23.863281 41.484375 L 26.359375 43.980469 Z M 26.359375 37.609375 C 26.503906 37.609375 26.648438 37.664062 26.761719 37.777344 L 30.066406 41.082031 C 30.289062 41.304688 30.289062 41.664062 30.066406 41.886719 L 26.761719 45.191406 C 26.546875 45.40625 26.167969 45.40625 25.953125 45.191406 L 22.648438 41.886719 C 22.425781 41.664062 22.425781 41.304688 22.648438 41.082031 L 25.953125 37.777344 C 26.066406 37.664062 26.210938 37.609375 26.359375 37.609375 " fill-opacity="1" fill-rule="nonzero"/><path fill="#ffffff" d="M 15.3125 37.601562 C 15.457031 37.601562 15.605469 37.660156 15.714844 37.769531 L 21.242188 43.296875 C 21.464844 43.519531 21.464844 43.882812 21.242188 44.105469 C 21.019531 44.328125 20.660156 44.328125 20.433594 44.105469 L 14.910156 38.578125 C 14.683594 38.355469 14.683594 37.992188 14.910156 37.769531 C 15.019531 37.660156 15.167969 37.601562 15.3125 37.601562 Z M 23.335938 35.96875 L 20.839844 33.472656 L 18.34375 35.96875 L 20.839844 38.464844 Z M 20.839844 32.097656 C 20.984375 32.097656 21.132812 32.152344 21.242188 32.261719 L 24.546875 35.566406 C 24.769531 35.789062 24.769531 36.152344 24.546875 36.375 L 21.242188 39.675781 C 21.027344 39.890625 20.648438 39.890625 20.433594 39.679688 L 17.132812 36.375 C 17.023438 36.265625 16.964844 36.121094 16.964844 35.96875 C 16.964844 35.820312 17.023438 35.671875 17.132812 35.566406 L 20.433594 32.261719 C 20.546875 32.152344 20.691406 32.097656 20.839844 32.097656 Z M 18.628906 29.878906 C 18.777344 29.878906 18.921875 29.933594 19.035156 30.042969 C 19.257812 30.269531 19.257812 30.628906 19.035156 30.851562 L 13.511719 36.375 C 13.289062 36.597656 12.925781 36.597656 12.703125 36.375 C 12.480469 36.152344 12.480469 35.789062 12.703125 35.566406 L 18.226562 30.042969 C 18.335938 29.933594 18.484375 29.878906 18.628906 29.878906 Z M 20.839844 27.667969 C 20.984375 27.667969 21.132812 27.726562 21.242188 27.835938 L 26.761719 33.355469 C 26.984375 33.578125 26.984375 33.941406 26.761719 34.164062 C 26.539062 34.386719 26.175781 34.386719 25.953125 34.164062 L 20.433594 28.644531 C 20.210938 28.421875 20.210938 28.058594 20.433594 27.835938 C 20.546875 27.726562 20.691406 27.667969 20.839844 27.667969 " fill-opacity="1" fill-rule="nonzero"/><g clip-path="url(#2bd9f2703e)"><path fill="#ffffff" d="M 23.328125 46.992188 L 20.832031 44.496094 L 18.335938 46.992188 L 20.832031 49.488281 Z M 20.832031 43.117188 C 20.984375 43.117188 21.128906 43.175781 21.234375 43.285156 L 24.539062 46.585938 C 24.761719 46.8125 24.761719 47.171875 24.539062 47.394531 L 21.234375 50.699219 C 21.019531 50.914062 20.640625 50.914062 20.425781 50.699219 L 17.125 47.394531 C 16.902344 47.171875 16.902344 46.8125 17.125 46.585938 L 20.425781 43.285156 C 20.535156 43.175781 20.679688 43.117188 20.832031 43.117188 Z M 18.617188 40.902344 C 18.765625 40.902344 18.910156 40.960938 19.023438 41.070312 C 19.246094 41.292969 19.246094 41.65625 19.023438 41.878906 L 13.910156 46.992188 L 20.832031 53.914062 L 28.15625 46.585938 C 28.378906 46.363281 28.742188 46.363281 28.964844 46.585938 C 29.1875 46.8125 29.1875 47.171875 28.964844 47.394531 L 21.234375 55.125 C 21.019531 55.339844 20.640625 55.339844 20.425781 55.125 L 12.695312 47.394531 C 12.589844 47.289062 12.53125 47.144531 12.53125 46.992188 C 12.53125 46.839844 12.589844 46.695312 12.695312 46.585938 L 18.214844 41.070312 C 18.324219 40.960938 18.472656 40.902344 18.617188 40.902344 Z M 20.832031 38.691406 C 20.976562 38.691406 21.125 38.746094 21.234375 38.859375 L 26.761719 44.382812 C 26.984375 44.605469 26.984375 44.96875 26.761719 45.191406 C 26.539062 45.414062 26.175781 45.414062 25.953125 45.191406 L 20.425781 39.664062 C 20.203125 39.441406 20.203125 39.082031 20.425781 38.859375 C 20.539062 38.746094 20.683594 38.691406 20.832031 38.691406 " fill-opacity="1" fill-rule="nonzero"/></g><g clip-path="url(#18d276d341)"><path fill="#ffffff" d="M 12.292969 35.957031 L 9.796875 33.460938 L 7.300781 35.957031 L 9.796875 38.453125 Z M 9.796875 32.082031 C 9.945312 32.082031 10.089844 32.140625 10.203125 32.25 L 13.503906 35.554688 C 13.613281 35.660156 13.671875 35.804688 13.671875 35.957031 C 13.671875 36.109375 13.613281 36.253906 13.503906 36.363281 L 10.203125 39.664062 C 9.976562 39.886719 9.617188 39.886719 9.394531 39.664062 L 6.089844 36.363281 C 5.867188 36.140625 5.867188 35.777344 6.089844 35.554688 L 9.394531 32.25 C 9.503906 32.140625 9.652344 32.082031 9.796875 32.082031 Z M 9.796875 27.65625 C 9.945312 27.65625 10.089844 27.710938 10.203125 27.824219 L 15.730469 33.351562 C 15.949219 33.574219 15.949219 33.933594 15.730469 34.160156 C 15.503906 34.382812 15.144531 34.382812 14.921875 34.160156 L 9.796875 29.035156 L 2.875 35.957031 L 9.796875 42.878906 L 17.566406 35.109375 C 17.792969 34.886719 18.152344 34.886719 18.375 35.109375 C 18.597656 35.332031 18.597656 35.695312 18.375 35.917969 L 10.203125 44.09375 C 10.09375 44.199219 9.949219 44.257812 9.796875 44.257812 C 9.644531 44.257812 9.5 44.199219 9.394531 44.09375 L 1.664062 36.363281 C 1.441406 36.140625 1.441406 35.777344 1.664062 35.554688 L 9.394531 27.824219 C 9.503906 27.710938 9.652344 27.65625 9.796875 27.65625 " fill-opacity="1" fill-rule="nonzero"/></g><g fill="#ffffff" fill-opacity="1"><g transform="translate(58.070293, 46.203243)"><g><path d="M 8.1875 0.265625 C 6.757812 0.265625 5.460938 -0.0234375 4.296875 -0.609375 C 3.140625 -1.203125 2.21875 -2.078125 1.53125 -3.234375 C 0.851562 -4.398438 0.515625 -5.851562 0.515625 -7.59375 C 0.535156 -9.289062 0.878906 -10.738281 1.546875 -11.9375 C 2.222656 -13.132812 3.140625 -14.039062 4.296875 -14.65625 C 5.460938 -15.28125 6.785156 -15.59375 8.265625 -15.59375 C 9.679688 -15.59375 10.890625 -15.335938 11.890625 -14.828125 C 12.890625 -14.316406 13.691406 -13.625 14.296875 -12.75 C 14.898438 -11.882812 15.296875 -10.910156 15.484375 -9.828125 L 12.625 -9.828125 C 12.5 -10.617188 12.203125 -11.242188 11.734375 -11.703125 C 11.273438 -12.171875 10.734375 -12.5 10.109375 -12.6875 C 9.492188 -12.875 8.878906 -12.96875 8.265625 -12.96875 C 6.648438 -12.96875 5.410156 -12.515625 4.546875 -11.609375 C 3.691406 -10.703125 3.265625 -9.425781 3.265625 -7.78125 C 3.265625 -6.019531 3.6875 -4.664062 4.53125 -3.71875 C 5.375 -2.78125 6.601562 -2.3125 8.21875 -2.3125 C 8.882812 -2.3125 9.535156 -2.414062 10.171875 -2.625 C 10.804688 -2.832031 11.347656 -3.175781 11.796875 -3.65625 C 12.253906 -4.132812 12.546875 -4.785156 12.671875 -5.609375 L 15.5625 -5.609375 C 15.363281 -4.484375 14.957031 -3.476562 14.34375 -2.59375 C 13.738281 -1.71875 12.921875 -1.019531 11.890625 -0.5 C 10.867188 0.0078125 9.632812 0.265625 8.1875 0.265625 Z M 8.1875 0.265625 "/></g></g></g><g fill="#ffffff" fill-opacity="1"><g transform="translate(74.44828, 46.203243)"><g><path d="M 1.140625 0 L 1.140625 -11.1875 L 3.734375 -11.1875 L 3.921875 -8.078125 C 4.023438 -8.546875 4.234375 -9.019531 4.546875 -9.5 C 4.867188 -9.988281 5.316406 -10.390625 5.890625 -10.703125 C 6.460938 -11.023438 7.203125 -11.1875 8.109375 -11.1875 L 8.515625 -11.1875 L 8.515625 -8.078125 L 8.109375 -8.078125 C 6.546875 -8.078125 5.457031 -7.828125 4.84375 -7.328125 C 4.226562 -6.828125 3.921875 -5.988281 3.921875 -4.8125 L 3.921875 0 Z M 1.140625 0 "/></g></g></g><g fill="#ffffff" fill-opacity="1"><g transform="translate(83.64389, 46.203243)"><g><path d="M -0.046875 5.203125 L -0.046875 3.046875 L 1.65625 3.046875 C 1.925781 3.046875 2.160156 3.019531 2.359375 2.96875 C 2.566406 2.914062 2.769531 2.773438 2.96875 2.546875 C 3.164062 2.316406 3.390625 1.945312 3.640625 1.4375 L 4.375 -0.1875 L 0.03125 -11.1875 L 2.890625 -11.1875 L 5.734375 -3.046875 L 8.8125 -11.1875 L 11.671875 -11.1875 L 6.171875 1.71875 C 5.734375 2.726562 5.332031 3.484375 4.96875 3.984375 C 4.613281 4.484375 4.210938 4.8125 3.765625 4.96875 C 3.316406 5.125 2.75 5.203125 2.0625 5.203125 Z M -0.046875 5.203125 "/></g></g></g><g fill="#ffffff" fill-opacity="1"><g transform="translate(95.641719, 46.203243)"><g><path d="M 7.9375 0.265625 C 7.25 0.265625 6.671875 0.160156 6.203125 -0.046875 C 5.742188 -0.253906 5.375 -0.5 5.09375 -0.78125 C 4.8125 -1.070312 4.601562 -1.335938 4.46875 -1.578125 C 4.332031 -1.816406 4.257812 -1.953125 4.25 -1.984375 L 4.1875 -1.984375 L 4.1875 4.984375 L 1.328125 4.984375 L 1.328125 -11.1875 L 3.75 -11.1875 L 4.21875 -8.734375 L 4.265625 -8.734375 C 4.285156 -8.785156 4.351562 -8.9375 4.46875 -9.1875 C 4.59375 -9.445312 4.785156 -9.726562 5.046875 -10.03125 C 5.304688 -10.34375 5.671875 -10.613281 6.140625 -10.84375 C 6.617188 -11.070312 7.210938 -11.1875 7.921875 -11.1875 C 9.585938 -11.1875 10.78125 -10.648438 11.5 -9.578125 C 12.226562 -8.503906 12.59375 -7.109375 12.59375 -5.390625 C 12.59375 -3.660156 12.21875 -2.285156 11.46875 -1.265625 C 10.726562 -0.242188 9.550781 0.265625 7.9375 0.265625 Z M 7.09375 -2.0625 C 7.863281 -2.0625 8.453125 -2.21875 8.859375 -2.53125 C 9.265625 -2.851562 9.539062 -3.269531 9.6875 -3.78125 C 9.84375 -4.300781 9.921875 -4.84375 9.921875 -5.40625 C 9.921875 -5.96875 9.832031 -6.5 9.65625 -7 C 9.488281 -7.5 9.195312 -7.90625 8.78125 -8.21875 C 8.363281 -8.539062 7.785156 -8.703125 7.046875 -8.703125 C 6.023438 -8.703125 5.296875 -8.390625 4.859375 -7.765625 C 4.429688 -7.140625 4.21875 -6.351562 4.21875 -5.40625 C 4.21875 -4.425781 4.441406 -3.625 4.890625 -3 C 5.347656 -2.375 6.082031 -2.0625 7.09375 -2.0625 Z M 7.09375 -2.0625 "/></g></g></g><g fill="#ffffff" fill-opacity="1"><g transform="translate(109.027049, 46.203243)"><g><path d="M 4.671875 0 C 3.785156 0 3.117188 -0.21875 2.671875 -0.65625 C 2.234375 -1.09375 2.015625 -1.800781 2.015625 -2.78125 L 2.015625 -9.21875 L 0.328125 -9.21875 L 0.328125 -11.1875 C 0.847656 -11.1875 1.253906 -11.238281 1.546875 -11.34375 C 1.835938 -11.445312 2.046875 -11.695312 2.171875 -12.09375 C 2.296875 -12.5 2.359375 -13.144531 2.359375 -14.03125 L 4.59375 -14.03125 L 4.59375 -11.1875 L 7.15625 -11.1875 L 7.15625 -9.21875 L 4.59375 -9.21875 L 4.59375 -2.171875 L 7.203125 -2.171875 L 7.203125 0 Z M 4.671875 0 "/></g></g></g><g fill="#ffffff" fill-opacity="1"><g transform="translate(117.324862, 46.203243)"><g><path d="M 2.859375 -12.40625 C 2.253906 -12.382812 1.859375 -12.523438 1.671875 -12.828125 C 1.484375 -13.128906 1.390625 -13.488281 1.390625 -13.90625 C 1.390625 -14.300781 1.488281 -14.644531 1.6875 -14.9375 C 1.882812 -15.226562 2.273438 -15.375 2.859375 -15.375 C 3.421875 -15.375 3.796875 -15.226562 3.984375 -14.9375 C 4.171875 -14.644531 4.265625 -14.300781 4.265625 -13.90625 C 4.265625 -13.488281 4.171875 -13.140625 3.984375 -12.859375 C 3.796875 -12.578125 3.421875 -12.425781 2.859375 -12.40625 Z M 1.4375 0 L 1.4375 -11.1875 L 4.21875 -11.1875 L 4.21875 0 Z M 1.4375 0 "/></g></g></g><g fill="#ffffff" fill-opacity="1"><g transform="translate(122.956497, 46.203243)"><g><path d="M 6.390625 0.265625 C 5.335938 0.265625 4.382812 0.0546875 3.53125 -0.359375 C 2.6875 -0.785156 2.007812 -1.421875 1.5 -2.265625 C 0.988281 -3.109375 0.734375 -4.140625 0.734375 -5.359375 C 0.765625 -6.578125 1.03125 -7.617188 1.53125 -8.484375 C 2.03125 -9.359375 2.703125 -10.03125 3.546875 -10.5 C 4.390625 -10.96875 5.359375 -11.203125 6.453125 -11.203125 C 7.554688 -11.203125 8.5 -10.988281 9.28125 -10.5625 C 10.070312 -10.132812 10.6875 -9.582031 11.125 -8.90625 C 11.5625 -8.226562 11.804688 -7.523438 11.859375 -6.796875 L 9.296875 -6.796875 C 9.023438 -8.140625 8.101562 -8.8125 6.53125 -8.8125 C 5.550781 -8.8125 4.789062 -8.507812 4.25 -7.90625 C 3.71875 -7.3125 3.453125 -6.535156 3.453125 -5.578125 C 3.453125 -4.523438 3.707031 -3.6875 4.21875 -3.0625 C 4.738281 -2.4375 5.507812 -2.125 6.53125 -2.125 C 7.21875 -2.125 7.816406 -2.300781 8.328125 -2.65625 C 8.847656 -3.019531 9.171875 -3.554688 9.296875 -4.265625 L 11.859375 -4.265625 C 11.804688 -3.484375 11.554688 -2.75 11.109375 -2.0625 C 10.671875 -1.375 10.054688 -0.8125 9.265625 -0.375 C 8.472656 0.0507812 7.515625 0.265625 6.390625 0.265625 Z M 6.390625 0.265625 "/></g></g></g><g fill="#ffffff" fill-opacity="1"><g transform="translate(135.716089, 46.203243)"><g><path d="M 6.28125 0.265625 C 5.007812 0.265625 3.957031 0.0195312 3.125 -0.46875 C 2.289062 -0.957031 1.664062 -1.628906 1.25 -2.484375 C 0.832031 -3.347656 0.625 -4.332031 0.625 -5.4375 C 0.601562 -7.101562 1.066406 -8.476562 2.015625 -9.5625 C 2.972656 -10.644531 4.394531 -11.1875 6.28125 -11.1875 C 8.113281 -11.1875 9.503906 -10.660156 10.453125 -9.609375 C 11.410156 -8.554688 11.890625 -7.164062 11.890625 -5.4375 C 11.890625 -4.363281 11.6875 -3.390625 11.28125 -2.515625 C 10.882812 -1.648438 10.269531 -0.96875 9.4375 -0.46875 C 8.601562 0.0195312 7.550781 0.265625 6.28125 0.265625 Z M 6.28125 -2.0625 C 7.082031 -2.0625 7.695312 -2.234375 8.125 -2.578125 C 8.550781 -2.921875 8.832031 -3.359375 8.96875 -3.890625 C 9.113281 -4.429688 9.1875 -4.972656 9.1875 -5.515625 C 9.1875 -6.078125 9.113281 -6.628906 8.96875 -7.171875 C 8.832031 -7.722656 8.550781 -8.171875 8.125 -8.515625 C 7.695312 -8.859375 7.082031 -9.03125 6.28125 -9.03125 C 5.46875 -9.03125 4.847656 -8.851562 4.421875 -8.5 C 3.992188 -8.144531 3.703125 -7.695312 3.546875 -7.15625 C 3.390625 -6.625 3.3125 -6.078125 3.3125 -5.515625 C 3.3125 -4.972656 3.390625 -4.429688 3.546875 -3.890625 C 3.703125 -3.359375 3.992188 -2.921875 4.421875 -2.578125 C 4.847656 -2.234375 5.46875 -2.0625 6.28125 -2.0625 Z M 6.28125 -2.0625 "/></g></g></g></svg>